<?xml version="1.0" encoding="utf-8"?>
<!-- Generator: Adobe Illustrator 27.5.0, SVG Export Plug-In . SVG Version: 6.00 Build 0)  -->
<svg version="1.1" xmlns="http://www.w3.org/2000/svg" xmlns:xlink="http://www.w3.org/1999/xlink" x="0px" y="0px"
	 viewBox="0 0 500 500" style="enable-background:new 0 0 500 500;" xml:space="preserve">
<g id="Background_Complete">
	<g>
		<g>
			<g>
				<g>
					<path style="fill:#EBEBEB;" d="M116.596,136.178c-0.38,1.285-6.916,11.581-16.337,15.086
						c-9.421,3.505-16.432,7.372-13.814,11.988c2.618,4.617,14.193,2.098,14.193,2.098s-23.484,25.532-1.376,40.12
						c26.963,17.792,55.138-45.893,55.138-45.893L116.596,136.178z"/>
					<g>
						<path style="fill:#E0E0E0;" d="M149.962,168.319c-0.073,0.12-8.963-5.177-19.852-11.83
							c-10.893-6.656-19.661-12.147-19.587-12.267c0.073-0.12,8.961,5.176,19.854,11.831
							C141.266,162.706,150.036,168.199,149.962,168.319z"/>
					</g>
					<g>
						<path style="fill:#E0E0E0;" d="M145.788,175.955c-0.073,0.121-9.675-5.514-21.444-12.584
							c-11.773-7.073-21.255-12.902-21.183-13.023c0.072-0.121,9.672,5.513,21.446,12.586
							C136.377,170.004,145.861,175.835,145.788,175.955z"/>
					</g>
					<g>
						<path style="fill:#E0E0E0;" d="M140.75,183.192c-0.073,0.121-10.854-6.223-24.079-14.167
							c-13.229-7.947-23.89-14.485-23.818-14.606c0.073-0.121,10.852,6.221,24.081,14.169
							C130.158,176.532,140.822,183.072,140.75,183.192z"/>
					</g>
					<g>
						<path style="fill:#E0E0E0;" d="M134.46,192.147c-0.075,0.119-8.431-4.977-18.661-11.381
							c-10.234-6.407-18.467-11.695-18.392-11.815c0.075-0.12,8.429,4.975,18.663,11.382
							C126.301,186.737,134.535,192.027,134.46,192.147z"/>
					</g>
					<g>
						<path style="fill:#E0E0E0;" d="M127.07,200.794c-0.078,0.117-7.859-4.903-17.377-11.212
							c-9.521-6.311-17.174-11.521-17.096-11.639c0.078-0.118,7.857,4.902,17.378,11.213
							C119.493,195.466,127.148,200.677,127.07,200.794z"/>
					</g>
					<g>
						<path style="fill:#E0E0E0;" d="M117.634,206.793c-0.017,0.031-0.436-0.168-1.178-0.554c-0.743-0.385-1.806-0.964-3.108-1.699
							c-2.606-1.468-6.161-3.577-10.004-6.04c-3.843-2.465-7.244-4.816-9.666-6.571c-1.211-0.877-2.181-1.601-2.841-2.115
							c-0.66-0.513-1.016-0.811-0.995-0.839c0.021-0.029,0.415,0.214,1.111,0.678c0.776,0.525,1.759,1.189,2.932,1.981
							c2.472,1.677,5.898,3.976,9.734,6.437c3.836,2.458,7.355,4.612,9.911,6.158c1.21,0.735,2.224,1.351,3.024,1.838
							C117.266,206.505,117.651,206.762,117.634,206.793z"/>
					</g>
					<g>
						<path style="fill:#E0E0E0;" d="M95.522,165.932c-0.038,0.122-2.522-0.666-5.211-2.388c-2.698-1.708-4.463-3.626-4.368-3.712
							c0.105-0.113,1.996,1.607,4.642,3.281C93.222,164.803,95.58,165.789,95.522,165.932z"/>
					</g>
					<g>
						<path style="fill:#E0E0E0;" d="M152.649,158.251c0.014,0.01-0.102,0.2-0.337,0.552c-0.27,0.392-0.617,0.898-1.048,1.525
							c-0.917,1.32-2.271,3.211-3.964,5.532c-3.386,4.644-8.163,10.987-13.615,17.855c-5.457,6.868-10.555,12.958-14.312,17.307
							c-1.878,2.175-3.413,3.921-4.491,5.113c-0.513,0.561-0.927,1.015-1.248,1.366c-0.29,0.309-0.448,0.465-0.461,0.453
							c-0.013-0.012,0.119-0.191,0.384-0.521c0.302-0.367,0.692-0.841,1.176-1.429c1.071-1.28,2.552-3.05,4.366-5.217
							c3.684-4.407,8.734-10.528,14.187-17.391c5.448-6.863,10.267-13.167,13.725-17.753c1.7-2.257,3.089-4.101,4.093-5.434
							c0.463-0.604,0.836-1.091,1.125-1.469C152.49,158.41,152.634,158.241,152.649,158.251z"/>
					</g>
					<g>
						<path style="fill:#E0E0E0;" d="M145.006,152.803c0.111,0.087-9.254,12.308-20.915,27.293
							c-11.665,14.991-21.209,27.069-21.32,26.982c-0.111-0.087,9.252-12.305,20.917-27.296
							C135.349,164.797,144.894,152.717,145.006,152.803z"/>
					</g>
					<g>
						<path style="fill:#E0E0E0;" d="M134.344,146.761c0.015,0.009-0.09,0.217-0.304,0.607c-0.245,0.432-0.563,0.992-0.959,1.69
							c-0.848,1.459-2.115,3.547-3.76,6.078c-3.272,5.072-8.14,11.854-13.878,19.054c-5.734,7.208-11.156,13.537-15.069,18.125
							c-1.939,2.25-3.522,4.087-4.662,5.41c-0.532,0.6-0.959,1.083-1.287,1.454c-0.299,0.329-0.462,0.496-0.475,0.484
							c-0.014-0.011,0.123-0.201,0.397-0.551c0.31-0.387,0.713-0.89,1.214-1.516c1.11-1.348,2.651-3.221,4.538-5.514
							c3.842-4.648,9.219-11.012,14.945-18.21c5.73-7.191,10.633-13.923,13.976-18.935c1.68-2.501,2.992-4.556,3.891-5.982
							c0.43-0.677,0.775-1.221,1.041-1.639C134.194,146.943,134.329,146.752,134.344,146.761z"/>
					</g>
					<g>
						<path style="fill:#E0E0E0;" d="M125.596,141.75c0.112,0.086-7.87,10.652-17.825,23.597
							c-9.959,12.949-18.12,23.374-18.232,23.288c-0.112-0.086,7.868-10.65,17.827-23.599
							C117.321,152.09,125.484,141.664,125.596,141.75z"/>
					</g>
					<g>
						<path style="fill:#E0E0E0;" d="M119.015,137.464c0.03,0.019-0.27,0.52-0.84,1.41c-0.28,0.449-0.635,0.989-1.085,1.591
							c-0.445,0.605-0.928,1.313-1.535,2.038c-1.164,1.492-2.667,3.175-4.439,4.943c-1.794,1.744-3.87,3.559-6.193,5.28
							c-2.337,1.702-4.69,3.141-6.892,4.332c-2.217,1.162-4.273,2.094-6.045,2.758c-0.874,0.363-1.694,0.612-2.404,0.856
							c-0.708,0.249-1.33,0.426-1.842,0.559c-1.02,0.277-1.587,0.413-1.596,0.38c-0.009-0.034,0.539-0.235,1.538-0.57
							c0.501-0.161,1.111-0.366,1.807-0.639c0.698-0.268,1.504-0.539,2.364-0.922c1.743-0.703,3.768-1.661,5.955-2.837
							c2.171-1.204,4.496-2.642,6.813-4.329c2.302-1.706,4.369-3.493,6.167-5.205c1.775-1.735,3.295-3.38,4.487-4.834
							c0.622-0.706,1.122-1.394,1.586-1.98c0.469-0.583,0.846-1.104,1.15-1.534C118.629,137.909,118.985,137.445,119.015,137.464z"
							/>
					</g>
				</g>
				<rect x="39.355" y="123.393" style="fill:#E0E0E0;" width="125.406" height="13.241"/>
				<g>
					<path style="fill:#F5F5F5;" d="M79.113,136.178c-0.38,1.285-6.917,11.581-16.337,15.086
						c-9.421,3.505-16.432,7.372-13.814,11.988c2.618,4.617,14.193,2.098,14.193,2.098s-23.484,25.532-1.376,40.12
						c26.963,17.792,55.138-45.893,55.138-45.893L79.113,136.178z"/>
					<g>
						<path style="fill:#E0E0E0;" d="M112.479,168.319c-0.074,0.12-8.963-5.177-19.852-11.83
							c-10.893-6.656-19.661-12.147-19.587-12.267s8.961,5.176,19.854,11.831C103.783,162.706,112.553,168.199,112.479,168.319z"/>
					</g>
					<g>
						<path style="fill:#E0E0E0;" d="M108.305,175.955c-0.073,0.121-9.674-5.514-21.444-12.584
							c-11.773-7.073-21.255-12.902-21.183-13.023c0.073-0.121,9.673,5.513,21.446,12.586
							C98.893,170.004,108.378,175.835,108.305,175.955z"/>
					</g>
					<g>
						<path style="fill:#E0E0E0;" d="M103.267,183.192c-0.073,0.121-10.854-6.223-24.079-14.167
							c-13.229-7.947-23.89-14.485-23.818-14.606c0.073-0.121,10.852,6.221,24.081,14.169
							C92.675,176.532,103.339,183.072,103.267,183.192z"/>
					</g>
					<g>
						<path style="fill:#E0E0E0;" d="M96.977,192.147c-0.075,0.119-8.431-4.977-18.661-11.381
							c-10.234-6.407-18.467-11.695-18.392-11.815c0.075-0.12,8.429,4.975,18.663,11.382
							C88.817,186.737,97.052,192.027,96.977,192.147z"/>
					</g>
					<g>
						<path style="fill:#E0E0E0;" d="M89.587,200.794c-0.078,0.117-7.859-4.903-17.377-11.212
							c-9.521-6.311-17.174-11.521-17.096-11.639c0.078-0.118,7.857,4.902,17.378,11.213
							C82.01,195.466,89.665,200.677,89.587,200.794z"/>
					</g>
					<g>
						<path style="fill:#E0E0E0;" d="M80.151,206.793c-0.017,0.031-0.436-0.168-1.178-0.554c-0.743-0.385-1.805-0.964-3.108-1.699
							c-2.606-1.468-6.161-3.577-10.004-6.04c-3.843-2.465-7.244-4.816-9.666-6.571c-1.211-0.877-2.181-1.601-2.841-2.115
							c-0.66-0.513-1.016-0.811-0.995-0.839c0.021-0.029,0.415,0.214,1.111,0.678c0.776,0.525,1.759,1.189,2.932,1.981
							c2.472,1.677,5.898,3.976,9.734,6.437c3.836,2.458,7.355,4.612,9.911,6.158c1.21,0.735,2.224,1.351,3.024,1.838
							C79.783,206.505,80.168,206.762,80.151,206.793z"/>
					</g>
					<g>
						<path style="fill:#E0E0E0;" d="M58.039,165.932c-0.038,0.122-2.522-0.666-5.21-2.388c-2.698-1.708-4.463-3.626-4.368-3.712
							c0.105-0.113,1.996,1.607,4.642,3.281C55.739,164.803,58.097,165.789,58.039,165.932z"/>
					</g>
					<g>
						<path style="fill:#E0E0E0;" d="M115.166,158.251c0.014,0.01-0.102,0.2-0.337,0.552c-0.27,0.392-0.617,0.898-1.048,1.525
							c-0.917,1.32-2.271,3.211-3.964,5.532c-3.385,4.644-8.162,10.987-13.615,17.855c-5.457,6.868-10.555,12.958-14.311,17.307
							c-1.878,2.175-3.413,3.921-4.491,5.113c-0.513,0.561-0.927,1.015-1.248,1.366c-0.29,0.309-0.448,0.465-0.461,0.453
							c-0.013-0.012,0.119-0.191,0.384-0.521c0.302-0.367,0.692-0.841,1.176-1.429c1.071-1.28,2.552-3.05,4.366-5.217
							c3.684-4.407,8.734-10.528,14.187-17.391c5.449-6.863,10.267-13.167,13.725-17.753c1.7-2.257,3.089-4.101,4.093-5.434
							c0.463-0.604,0.836-1.091,1.126-1.469C115.007,158.41,115.151,158.241,115.166,158.251z"/>
					</g>
					<g>
						<path style="fill:#E0E0E0;" d="M107.523,152.803c0.111,0.087-9.254,12.308-20.915,27.293
							c-11.665,14.991-21.209,27.069-21.32,26.982c-0.111-0.087,9.252-12.305,20.917-27.296
							C97.866,164.797,107.411,152.717,107.523,152.803z"/>
					</g>
					<g>
						<path style="fill:#E0E0E0;" d="M96.861,146.761c0.015,0.009-0.09,0.217-0.304,0.607c-0.245,0.432-0.563,0.992-0.959,1.69
							c-0.848,1.459-2.115,3.547-3.76,6.078c-3.272,5.072-8.14,11.854-13.878,19.054c-5.734,7.208-11.156,13.537-15.069,18.125
							c-1.939,2.25-3.522,4.087-4.662,5.41c-0.531,0.6-0.959,1.083-1.287,1.454c-0.299,0.329-0.462,0.496-0.475,0.484
							c-0.013-0.011,0.124-0.201,0.397-0.551c0.31-0.387,0.713-0.89,1.214-1.516c1.11-1.348,2.65-3.221,4.538-5.514
							c3.842-4.648,9.219-11.012,14.945-18.21c5.731-7.191,10.633-13.923,13.977-18.935c1.68-2.501,2.992-4.556,3.891-5.982
							c0.429-0.677,0.775-1.221,1.041-1.639C96.711,146.943,96.846,146.752,96.861,146.761z"/>
					</g>
					<g>
						<path style="fill:#E0E0E0;" d="M88.113,141.75c0.112,0.086-7.87,10.652-17.825,23.597
							c-9.959,12.949-18.12,23.374-18.232,23.288c-0.112-0.086,7.868-10.65,17.827-23.599
							C79.838,152.09,88.001,141.664,88.113,141.75z"/>
					</g>
					<g>
						<path style="fill:#E0E0E0;" d="M81.532,137.464c0.03,0.019-0.27,0.52-0.84,1.41c-0.28,0.449-0.635,0.989-1.085,1.591
							c-0.445,0.605-0.928,1.313-1.535,2.038c-1.164,1.492-2.667,3.175-4.439,4.943c-1.794,1.744-3.87,3.559-6.193,5.28
							c-2.337,1.702-4.69,3.141-6.892,4.332c-2.217,1.162-4.273,2.094-6.045,2.758c-0.874,0.363-1.694,0.612-2.403,0.856
							c-0.709,0.249-1.331,0.426-1.842,0.559c-1.02,0.277-1.587,0.413-1.596,0.38c-0.009-0.034,0.539-0.235,1.538-0.57
							c0.501-0.161,1.111-0.366,1.807-0.639c0.697-0.268,1.504-0.539,2.363-0.922c1.743-0.703,3.768-1.661,5.955-2.837
							c2.171-1.204,4.496-2.642,6.813-4.329c2.302-1.706,4.369-3.493,6.167-5.205c1.776-1.735,3.295-3.38,4.487-4.834
							c0.622-0.706,1.122-1.394,1.586-1.98c0.469-0.583,0.846-1.104,1.15-1.534C81.146,137.909,81.502,137.445,81.532,137.464z"/>
					</g>
				</g>
			</g>
			<g>
				<rect x="98.121" y="57.137" style="fill:#E0E0E0;" width="8.02" height="8.02"/>
				<rect x="64.943" y="75.83" style="fill:#F5F5F5;" width="74.749" height="47.177"/>
				<path style="fill:#F5F5F5;" d="M64.943,75.83c0,0,11.443-11.954,40.134-11.476c28.691,0.478,34.614,11.476,34.614,11.476H64.943
					z"/>
				<g>
					<path style="fill:#E0E0E0;" d="M139.403,76.598c0,0.141-16.804,0.255-37.528,0.255c-20.731,0-37.531-0.114-37.531-0.255
						c0-0.141,16.8-0.255,37.531-0.255C122.599,76.342,139.403,76.457,139.403,76.598z"/>
				</g>
				<path style="fill:#E0E0E0;" d="M156.233,83.056h-16.83v-6.458h16.83c1.526,0,2.764,1.237,2.764,2.763v0.931
					C158.997,81.819,157.76,83.056,156.233,83.056z"/>
				<path style="fill:#E0E0E0;" d="M48.39,76.598h16.83v6.458H48.39c-1.526,0-2.764-1.237-2.764-2.764v-0.931
					C45.626,77.835,46.863,76.598,48.39,76.598z"/>
				<path style="fill:#E0E0E0;" d="M110.453,59.45H94.181c-1.093,0-1.979-0.886-1.979-1.979v-0.667c0-1.093,0.886-1.979,1.979-1.979
					h16.273c1.093,0,1.979,0.886,1.979,1.979v0.667C112.432,58.564,111.546,59.45,110.453,59.45z"/>
			</g>
		</g>
		<rect x="34.922" y="362.081" style="fill:#F5F5F5;" width="431.754" height="115.819"/>
		<rect x="29.429" y="357.274" style="fill:#E0E0E0;" width="440.231" height="14.093"/>
		<g>
			<rect x="51.995" y="390.257" style="fill:#EBEBEB;" width="113.56" height="35.07"/>
			<circle style="fill:#E0E0E0;" cx="108.775" cy="407.792" r="2.927"/>
		</g>
		<g>
			<rect x="51.995" y="432.721" style="fill:#EBEBEB;" width="113.56" height="35.07"/>
			<circle style="fill:#E0E0E0;" cx="108.775" cy="450.256" r="2.927"/>
		</g>
		<g>
			<rect x="330.162" y="390.257" style="fill:#EBEBEB;" width="113.56" height="35.07"/>
			<circle style="fill:#E0E0E0;" cx="386.942" cy="407.792" r="2.927"/>
		</g>
		<g>
			<rect x="330.162" y="432.721" style="fill:#EBEBEB;" width="113.56" height="35.07"/>
			<circle style="fill:#E0E0E0;" cx="386.942" cy="450.256" r="2.927"/>
		</g>
		<g>
			<path style="fill:#EBEBEB;" d="M169.081,478.099c0,0-0.014-0.516-0.021-1.544c-0.005-1.04-0.013-2.568-0.022-4.566
				c-0.012-4.031-0.029-9.95-0.051-17.546c-0.025-15.251-0.062-37.229-0.107-64.186l0-0.202l0.202,0
				c39.941-0.016,91.79-0.036,148.267-0.058h0.011h0.26v0.26c-0.007,31.107-0.013,60.807-0.019,87.842l0,0.242l-0.242,0
				c-43.522-0.048-80.615-0.089-106.84-0.118c-13.08-0.028-23.447-0.05-30.555-0.065c-3.535-0.013-6.257-0.023-8.108-0.03
				c-0.91-0.006-1.603-0.011-2.08-0.014C169.311,478.109,169.081,478.099,169.081,478.099s0.249-0.01,0.724-0.014
				c0.484-0.003,1.186-0.008,2.108-0.014c1.862-0.007,4.601-0.017,8.157-0.03c7.122-0.015,17.507-0.038,30.61-0.066
				c26.186-0.029,63.223-0.07,106.68-0.118l-0.242,0.242c-0.006-27.035-0.012-56.735-0.019-87.842l0.26,0.26h-0.011
				c-56.478-0.022-108.326-0.043-148.267-0.058l0.202-0.202c-0.045,26.905-0.081,48.84-0.107,64.061
				c-0.022,7.616-0.039,13.55-0.051,17.592c-0.01,2.014-0.017,3.555-0.022,4.603C169.096,477.554,169.081,478.099,169.081,478.099z"
				/>
		</g>
		<g>
			<path style="fill:#E0E0E0;" d="M102.243,315.213c0,6.123-4.964,11.087-11.087,11.087c-6.123,0-11.088-4.964-11.088-11.087
				c0-6.124,4.964-11.087,11.088-11.087C97.279,304.126,102.243,309.09,102.243,315.213z"/>
			<circle style="fill:#F5F5F5;" cx="112.788" cy="315.03" r="11.088"/>
			<circle style="fill:#F5F5F5;" cx="69.523" cy="315.03" r="11.087"/>
			<path style="fill:#EBEBEB;" d="M54.786,317.416h72.42c0,0-0.745,29.864-20.188,33.517l-0.303,6.342H74.101v-6.456
				C74.101,350.818,54.785,345.874,54.786,317.416z"/>
			<g>
				<path style="fill:#FFFFFF;" d="M107.018,350.933c0,0.104-7.392,0.189-16.509,0.189c-9.12,0-16.511-0.084-16.511-0.189
					c0-0.104,7.391-0.189,16.511-0.189C99.626,350.744,107.018,350.829,107.018,350.933z"/>
			</g>
			<g>
				<path style="fill:#FFFFFF;" d="M124.402,332.805c0,0-0.157,0.026-0.464,0.057c-0.321,0.027-0.774,0.066-1.365,0.117
					c-1.195,0.067-3,0.224-5.258-0.255c-1.12-0.24-2.358-0.651-3.541-1.416c-1.17-0.762-2.318-1.867-3.003-3.38
					c-0.334-0.756-0.521-1.609-0.506-2.498c0.037-0.886,0.324-1.803,0.916-2.552c0.296-0.371,0.676-0.695,1.129-0.901
					c0.454-0.2,0.974-0.271,1.478-0.196c1.01,0.171,1.908,0.86,2.425,1.781c0.524,0.935,0.611,2.071,0.416,3.141
					c-0.192,1.079-0.654,2.109-1.247,3.07c-1.215,1.905-3.097,3.511-5.393,4.356c-2.284,0.869-4.974,0.859-7.401-0.079
					c-1.213-0.467-2.363-1.154-3.362-2.048c-0.969-0.905-1.895-1.975-2.282-3.344c-0.192-0.674-0.203-1.421,0.011-2.109
					c0.208-0.685,0.662-1.334,1.328-1.684c1.355-0.693,3.053-0.179,4.028,0.915c1.006,1.098,1.454,2.557,1.69,3.99
					c0.233,1.45,0.172,2.953-0.133,4.411c-0.614,2.909-2.222,5.703-4.685,7.584c-1.222,0.943-2.647,1.639-4.16,2.038
					c-1.517,0.385-3.11,0.487-4.682,0.314c-3.145-0.328-6.135-1.847-8.134-4.212c-0.992-1.18-1.733-2.591-1.995-4.11
					c-0.273-1.513,0.058-3.132,0.926-4.381c0.836-1.253,2.273-2.186,3.821-2.106c1.506,0.089,2.942,0.994,3.561,2.365
					c0.324,0.679,0.344,1.478,0.147,2.183c-0.208,0.709-0.627,1.336-1.144,1.827c-1.035,0.993-2.354,1.582-3.671,1.931
					c-5.306,1.448-10.95-0.162-14.404-3.599c-0.854-0.867-1.554-1.881-1.953-3.001c-0.413-1.114-0.471-2.334-0.196-3.443
					c0.27-1.108,0.88-2.134,1.78-2.79c0.892-0.671,2.035-0.891,3.073-0.749c1.044,0.14,2.012,0.669,2.643,1.454
					c0.631,0.78,0.97,1.749,0.979,2.697c0.017,0.952-0.323,1.861-0.848,2.572c-0.523,0.719-1.206,1.263-1.907,1.686
					c-1.412,0.854-2.901,1.259-4.248,1.598c-1.358,0.326-2.621,0.516-3.762,0.625c-2.285,0.214-4.071,0.094-5.268-0.031
					c-1.198-0.133-1.816-0.276-1.816-0.276s0.158,0.011,0.464,0.051c0.305,0.042,0.761,0.096,1.36,0.149
					c1.195,0.101,2.976,0.196,5.246-0.039c1.133-0.12,2.388-0.32,3.734-0.654c1.337-0.347,2.807-0.76,4.181-1.603
					c0.682-0.417,1.339-0.949,1.834-1.638c0.497-0.683,0.811-1.541,0.791-2.436c-0.012-0.893-0.339-1.81-0.935-2.54
					c-0.595-0.733-1.499-1.223-2.483-1.351c-0.978-0.129-2.045,0.082-2.871,0.71c-0.835,0.614-1.41,1.58-1.662,2.634
					c-0.257,1.058-0.2,2.209,0.197,3.271c0.385,1.069,1.06,2.045,1.892,2.885c3.369,3.338,8.915,4.91,14.089,3.483
					c1.282-0.34,2.547-0.915,3.516-1.849c0.484-0.461,0.862-1.035,1.048-1.67c0.174-0.639,0.157-1.332-0.132-1.939
					c-0.546-1.226-1.885-2.073-3.249-2.147c-0.686-0.047-1.37,0.169-1.979,0.505c-0.597,0.36-1.126,0.851-1.519,1.445
					c-0.812,1.176-1.122,2.677-0.863,4.111c0.249,1.437,0.956,2.792,1.915,3.931c1.931,2.282,4.83,3.76,7.888,4.078
					c1.527,0.167,3.075,0.069,4.545-0.304c1.466-0.387,2.842-1.058,4.025-1.97c2.385-1.818,3.953-4.536,4.552-7.362
					c0.297-1.417,0.358-2.875,0.134-4.279c-0.225-1.392-0.666-2.793-1.593-3.802c-0.883-1.005-2.438-1.447-3.597-0.848
					c-0.57,0.298-0.971,0.859-1.16,1.475c-0.193,0.621-0.187,1.289-0.011,1.913c0.351,1.262,1.238,2.306,2.175,3.183
					c0.964,0.866,2.077,1.534,3.253,1.99c2.355,0.916,4.956,0.932,7.173,0.096c2.23-0.813,4.069-2.371,5.255-4.218
					c0.579-0.932,1.031-1.932,1.218-2.965c0.191-1.023,0.106-2.099-0.374-2.961c-0.476-0.859-1.317-1.504-2.233-1.661
					c-0.458-0.07-0.924-0.008-1.338,0.171c-0.412,0.185-0.764,0.48-1.042,0.826c-0.557,0.696-0.839,1.571-0.878,2.412
					c-0.018,0.847,0.155,1.672,0.473,2.404c0.653,1.467,1.767,2.559,2.909,3.314c1.154,0.759,2.367,1.174,3.475,1.423
					c2.227,0.497,4.027,0.366,5.221,0.323c0.591-0.034,1.046-0.061,1.367-0.079C124.243,332.805,124.402,332.805,124.402,332.805z"
					/>
			</g>
		</g>
		<g>
			<g>
				<rect x="308.187" y="17.143" style="fill:#F5F5F5;" width="77.212" height="58.937"/>
				<polygon style="fill:#F5F5F5;" points="216.908,140.398 308.187,76.079 385.399,76.079 480.611,140.398 480.611,149.363
					216.908,149.363 				"/>
				<rect x="216.908" y="140.398" style="fill:#EBEBEB;" width="263.703" height="8.965"/>
			</g>
			<polygon style="fill:#FAFAFA;" points="324.471,76.649 285.041,140.398 350.58,140.398 338.943,76.649 338.943,17.143
				324.151,17.143 			"/>
			<g>
				<line style="fill:#E0E0E0;" x1="307.09" y1="76.649" x2="384.302" y2="76.649"/>
				<g>
					<path style="fill:#E0E0E0;" d="M384.302,76.649c0,0.144-17.286,0.26-38.604,0.26c-21.326,0-38.608-0.117-38.608-0.26
						c0-0.144,17.282-0.26,38.608-0.26C367.016,76.388,384.302,76.505,384.302,76.649z"/>
				</g>
			</g>
		</g>
		<g>
			<rect x="7.937" y="227.684" style="fill:#FAFAFA;" width="26.985" height="26.985"/>
			<rect x="7.937" y="257.909" style="fill:#FAFAFA;" width="26.985" height="26.985"/>
			<rect x="38.341" y="227.684" style="fill:#FAFAFA;" width="26.985" height="26.985"/>
			<rect x="38.341" y="257.909" style="fill:#FAFAFA;" width="26.985" height="26.985"/>
			<rect x="68.746" y="227.684" style="fill:#FAFAFA;" width="26.985" height="26.985"/>
			<rect x="68.746" y="257.909" style="fill:#FAFAFA;" width="26.985" height="26.985"/>
			<rect x="99.15" y="227.684" style="fill:#FAFAFA;" width="26.985" height="26.985"/>
			<rect x="99.15" y="257.909" style="fill:#FAFAFA;" width="26.985" height="26.985"/>
		</g>
		<g>
			<rect x="129.089" y="227.684" style="fill:#FAFAFA;" width="26.985" height="26.985"/>
			<rect x="129.089" y="257.909" style="fill:#FAFAFA;" width="26.985" height="26.985"/>
			<rect x="159.493" y="227.684" style="fill:#FAFAFA;" width="26.985" height="26.985"/>
			<rect x="159.493" y="257.909" style="fill:#FAFAFA;" width="26.985" height="26.985"/>
			<rect x="189.898" y="227.684" style="fill:#FAFAFA;" width="26.985" height="26.985"/>
			<rect x="189.898" y="257.909" style="fill:#FAFAFA;" width="26.985" height="26.985"/>
			<rect x="220.302" y="227.684" style="fill:#FAFAFA;" width="26.985" height="26.985"/>
			<rect x="220.302" y="257.909" style="fill:#FAFAFA;" width="26.985" height="26.985"/>
		</g>
		<g>
			<rect x="250.241" y="227.684" style="fill:#FAFAFA;" width="26.985" height="26.985"/>
			<rect x="250.241" y="257.909" style="fill:#FAFAFA;" width="26.985" height="26.985"/>
			<rect x="280.645" y="227.684" style="fill:#FAFAFA;" width="26.985" height="26.985"/>
			<rect x="280.645" y="257.909" style="fill:#FAFAFA;" width="26.985" height="26.985"/>
			<rect x="311.05" y="227.684" style="fill:#FAFAFA;" width="26.985" height="26.985"/>
			<rect x="311.05" y="257.909" style="fill:#FAFAFA;" width="26.985" height="26.985"/>
			<rect x="341.454" y="227.684" style="fill:#FAFAFA;" width="26.985" height="26.985"/>
			<rect x="341.454" y="257.909" style="fill:#FAFAFA;" width="26.985" height="26.985"/>
		</g>
		<g>
			<rect x="371.393" y="227.684" style="fill:#FAFAFA;" width="26.985" height="26.985"/>
			<rect x="371.393" y="257.909" style="fill:#FAFAFA;" width="26.985" height="26.985"/>
			<rect x="401.797" y="227.684" style="fill:#FAFAFA;" width="26.985" height="26.985"/>
			<rect x="401.797" y="257.909" style="fill:#FAFAFA;" width="26.985" height="26.985"/>
			<rect x="432.202" y="227.684" style="fill:#FAFAFA;" width="26.985" height="26.985"/>
			<rect x="432.202" y="257.909" style="fill:#FAFAFA;" width="26.985" height="26.985"/>
			<rect x="462.606" y="227.684" style="fill:#FAFAFA;" width="26.985" height="26.985"/>
			<rect x="462.606" y="257.909" style="fill:#FAFAFA;" width="26.985" height="26.985"/>
		</g>
	</g>
</g>
<g id="Background_Simple" style="display:none;">
	<path style="display:inline;fill:#F5F5F5;" d="M60.116,147.598l1.775-4.099c14.965-34.557,47.313-58.598,84.527-61.341
		c4.784-0.353,9.594-0.36,14.39-0.004c34.532,2.565,67.21,23.915,83.778,54.737c9.744,18.127,14.759,39.852,30.348,53.159
		c20.288,17.319,50.207,13.834,76.324,9.407c26.117-4.427,56.066-7.837,76.279,9.571c12.659,10.903,18.568,28.071,19.972,44.812
		c3.716,44.322-21.53,87.883-57.831,112.803c-36.301,24.921-81.968,32.989-125.826,30.259
		c-61.439-3.825-122.845-29.096-164.05-75.51C58.597,274.978,40.367,206.529,60.116,147.598z"/>
</g>
<g id="Table">
	<g>
		<path style="fill:#263238;" d="M468.623,477.901c0,0.144-97.889,0.26-218.613,0.26c-120.766,0-218.634-0.117-218.634-0.26
			s97.868-0.26,218.634-0.26C370.734,477.64,468.623,477.757,468.623,477.901z"/>
	</g>
</g>
<g id="Speech_Bubble">
	<g>
		<g>
			<g>
				<g>
					<g>
						<g>
							<g>
								<g>
									<g>
										<g>
											<g>
												<g>
													<path style="fill:#FFFFFF;" d="M272.657,148.581l9.365-0.053c3.305,4.197,7.774,7.561,13.157,9.535
														c15.481,5.678,32.633-2.269,38.311-17.75c5.678-15.481-2.269-32.633-17.75-38.311
														c-15.48-5.678-32.633,2.269-38.311,17.75c-2.37,6.464-2.358,13.217-0.422,19.307l-0.009-0.014L272.657,148.581z"/>
												</g>
											</g>
										</g>
									</g>
								</g>
							</g>
							<g>
								<g>
									<g>
										<g>
											<g>
												<g>
													<g>
														<path style="fill:#263238;" d="M272.657,148.581c0,0,0.108-0.216,0.302-0.629c0.198-0.423,0.482-1.03,0.853-1.825
															c0.747-1.608,1.844-3.971,3.271-7.043l-0.163,0.011l0.009,0.014c0.027,0.044,0.085,0.057,0.129,0.03
															c0.036-0.023,0.051-0.068,0.039-0.108c-1.156-3.718-1.962-8.848-0.801-14.687c0.287-1.452,0.689-2.941,1.239-4.434
															c0.62-1.464,1.21-3.004,2.091-4.456c1.664-2.945,3.942-5.792,6.843-8.197c2.893-2.406,6.402-4.366,10.322-5.559
															c3.913-1.197,8.234-1.619,12.577-1.045c8.683,1.064,17.358,6.548,21.991,15.006c2.341,4.298,3.692,9.074,3.722,13.789
															c0.084,4.709-0.961,9.306-2.862,13.343c-1.888,4.053-4.71,7.478-7.918,10.123c-3.22,2.648-6.861,4.501-10.522,5.577
															c-3.666,1.082-7.346,1.388-10.753,1.115c-0.426-0.042-0.849-0.083-1.268-0.124c-0.421-0.034-0.836-0.08-1.239-0.178
															c-0.813-0.163-1.612-0.324-2.397-0.482c-1.527-0.485-3.029-0.875-4.388-1.486c-5.499-2.342-9.271-5.876-11.641-8.861
															c-0.017-0.022-0.044-0.034-0.07-0.034c-3.021,0.041-5.348,0.073-6.936,0.094c-0.784,0.013-1.383,0.023-1.803,0.03
															C272.874,148.572,272.657,148.581,272.657,148.581s0.191,0.007,0.587,0.01c0.414,0.002,1.005,0.005,1.778,0.009
															c1.602,0.004,3.95,0.009,7,0.016l-0.07-0.034c2.355,3.025,6.133,6.613,11.671,9.005
															c1.368,0.623,2.883,1.025,4.423,1.52c0.793,0.163,1.599,0.329,2.42,0.498c0.408,0.099,0.827,0.148,1.252,0.184
															c0.423,0.043,0.851,0.087,1.281,0.13c3.443,0.288,7.166-0.008,10.878-1.093c3.708-1.079,7.399-2.945,10.665-5.621
															c3.255-2.672,6.121-6.139,8.04-10.245c1.932-4.089,2.996-8.748,2.914-13.524c-0.028-4.782-1.395-9.625-3.77-13.984
															c-0.261-0.551-0.605-1.052-0.936-1.559l-0.993-1.516l-1.125-1.41c-0.369-0.473-0.742-0.942-1.174-1.356
															c-0.416-0.428-0.831-0.856-1.245-1.282c-0.402-0.438-0.891-0.782-1.331-1.176c-0.457-0.374-0.888-0.78-1.363-1.125
															c-0.484-0.333-0.967-0.666-1.449-0.997c-3.886-2.599-8.286-4.228-12.689-4.78c-4.403-0.576-8.782-0.141-12.743,1.079
															c-3.967,1.217-7.516,3.21-10.437,5.653c-2.929,2.442-5.224,5.33-6.896,8.313c-0.885,1.472-1.476,3.03-2.095,4.511
															c-0.549,1.51-0.948,3.016-1.232,4.483c-1.144,5.901-0.296,11.068,0.9,14.797l0.167-0.078l-0.009-0.014
															c-0.027-0.043-0.085-0.057-0.128-0.029c-0.016,0.01-0.028,0.025-0.036,0.041c-1.393,3.12-2.464,5.519-3.193,7.153
															c-0.351,0.792-0.618,1.396-0.805,1.817C272.737,148.383,272.657,148.581,272.657,148.581z"/>
													</g>
												</g>
											</g>
										</g>
									</g>
								</g>
							</g>
						</g>
					</g>
				</g>
			</g>
		</g>
		<g>
			<g>
				<g>
					<g>
						<g>
							<g>
								<g>
									<g>
										<polygon style="fill:#FF725E;" points="290.257,131.332 294.426,126.72 303.273,133.821 316.413,118.731 320.711,122.916
											303.073,142.32 										"/>
									</g>
								</g>
							</g>
						</g>
					</g>
				</g>
			</g>
		</g>
	</g>
</g>
<g id="Character">
	<g>
		<g>
			<path style="fill:#263238;" d="M243.086,145.475l-75.393,4.497c-4.698,16.736-5.371,32.895-0.241,49.477
				c1.464,4.733,3.626,9.731,8.601,12.484c4.45,2.463,10.227,2.609,15.645,2.551c26.272-0.28,52.528-3.362,77.87-9.141
				c-4.993-2.774-7.862-7.846-7.203-12.736c2.159,4.786,8.288,8.061,14.608,8.259s12.569-2.469,16.439-6.539
				C271.973,184.568,243.597,165.415,243.086,145.475z"/>
			<g>
				<path style="fill:#263238;" d="M292.965,177.133c-0.001,0.018-0.226,0.023-0.656,0.017c-0.429-0.011-1.063-0.013-1.877-0.062
					c-1.629-0.076-3.985-0.255-6.878-0.65c-5.751-0.789-13.801-2.555-21.62-6.96c-3.883-2.22-7.254-4.888-9.943-7.675
					c-2.69-2.789-4.729-5.657-6.117-8.234c-1.396-2.574-2.233-4.804-2.674-6.376c-0.256-0.776-0.355-1.407-0.462-1.822
					c-0.093-0.419-0.133-0.641-0.115-0.645c0.049-0.012,0.266,0.864,0.771,2.407c0.497,1.544,1.38,3.733,2.802,6.258
					c1.415,2.528,3.461,5.339,6.139,8.078c2.678,2.737,6.018,5.362,9.856,7.557c7.734,4.358,15.702,6.171,21.417,7.049
					c2.873,0.44,5.217,0.674,6.838,0.812c0.767,0.066,1.387,0.118,1.868,0.159C292.741,177.085,292.965,177.115,292.965,177.133z"/>
			</g>
		</g>
		<g>
			<path style="fill:#263238;" d="M306.013,323.007c-0.278,0.075-22.236-6.906-22.236-6.906l-6.904,5.447l18.829,8.18
				c0,0,8.311,0.947,12.296,3.297C311.983,335.375,306.013,323.007,306.013,323.007z"/>
			<path style="fill:#263238;" d="M302.638,324.359c0,0,0.036,0.219,0.145,0.61c0.637,2.289,3.767,10.473,16.764,15.189
				c15.219,5.522,48.404,7.065,53.905,6.2c10.656-1.676,20.605-9.989,20.193-12.069"/>
			<path style="fill:#455A64;" d="M393.646,334.289c-0.369,3.384-21.041,3.905-46.172,1.163
				c-25.131-2.742-45.204-7.708-44.835-11.092c0.369-3.384,21.041-3.905,46.172-1.163
				C373.941,325.939,394.015,330.905,393.646,334.289z"/>
			<g>
				<g>
					<path style="fill:#FF725E;" d="M361.732,331.932c1.671-1.681,4.041-2.678,2.801-4.629c-0.338,0.657-2.009,0.643-2.591,1.153
						c-0.581,0.51-2.192-0.097-2.983-0.305c-0.977-0.256-1.508-1.241-1.448-2.13c0.059-0.889,0.569-1.7,1.081-2.469
						c1.043-1.568,2.142-3.107,3.296-4.614c0.419-0.547,0.857-1.116,0.957-1.768c0.1-0.653-0.255-1.412-0.977-1.604
						c-0.647-0.172-1.317,0.149-1.884,0.47c-2.493,1.411-4.931,3.2-5.844,5.671c-0.574,1.554-0.495,3.263-1.189,4.779
						c-0.694,1.516-2.695,2.823-4.37,2.091c-1.031-0.45-1.524-1.489-1.794-2.468s-0.425-2.024-1.102-2.839
						c-0.677-0.815-2.123-1.261-2.993-0.604c-1.486,1.121,0.412,3.584-0.862,4.889c-0.542,0.555-1.513,0.665-2.311,0.444
						c-0.798-0.22-1.459-0.709-2.072-1.207c-4.192-3.405-7.273-7.843-8.791-12.66c-0.194-0.616-0.37-1.252-0.778-1.782
						c-0.408-0.53-1.113-0.941-1.837-0.857c-1.152,0.135-1.67,1.353-1.672,2.368c-0.006,2.869,2.103,5.374,4.117,7.646
						c2.318,2.615,4.636,5.229,6.953,7.844l3.161,3.651l13.583,2.988l9.195-1.898L361.732,331.932z"/>
					<g style="opacity:0.6;">
						<path style="fill:#FFFFFF;" d="M361.732,331.932c1.671-1.681,4.041-2.678,2.801-4.629c-0.338,0.657-2.009,0.643-2.591,1.153
							c-0.581,0.51-2.192-0.097-2.983-0.305c-0.977-0.256-1.508-1.241-1.448-2.13c0.059-0.889,0.569-1.7,1.081-2.469
							c1.043-1.568,2.142-3.107,3.296-4.614c0.419-0.547,0.857-1.116,0.957-1.768c0.1-0.653-0.255-1.412-0.977-1.604
							c-0.647-0.172-1.317,0.149-1.884,0.47c-2.493,1.411-4.931,3.2-5.844,5.671c-0.574,1.554-0.495,3.263-1.189,4.779
							c-0.694,1.516-2.695,2.823-4.37,2.091c-1.031-0.45-1.524-1.489-1.794-2.468s-0.425-2.024-1.102-2.839
							c-0.677-0.815-2.123-1.261-2.993-0.604c-1.486,1.121,0.412,3.584-0.862,4.889c-0.542,0.555-1.513,0.665-2.311,0.444
							c-0.798-0.22-1.459-0.709-2.072-1.207c-4.192-3.405-7.273-7.843-8.791-12.66c-0.194-0.616-0.37-1.252-0.778-1.782
							c-0.408-0.53-1.113-0.941-1.837-0.857c-1.152,0.135-1.67,1.353-1.672,2.368c-0.006,2.869,2.103,5.374,4.117,7.646
							c2.318,2.615,4.636,5.229,6.953,7.844l3.161,3.651l13.583,2.988l9.195-1.898L361.732,331.932z"/>
					</g>
				</g>
				<g>
					<path style="fill:#FF725E;" d="M365.582,337.245c0.299-1.831,1.961-3.432,4.018-3.87c0.693-0.148,1.437-0.18,2.056-0.489
						c0.619-0.31,1.048-1.047,0.649-1.565c-0.393-0.511-1.253-0.469-1.947-0.369c-1.586,0.228-3.171,0.456-4.757,0.684
						c1.278-1.284,2.556-2.567,3.833-3.851c0.505-0.508,1.04-1.203,0.673-1.796c-0.355-0.573-1.283-0.59-2.013-0.461
						c-2.495,0.442-4.783,1.716-6.294,3.505c-1.35,1.599-2.115,3.599-3.833,4.901c-1.552,1.177-3.799,1.613-5.78,1.122
						c-1.981-0.491-3.635-1.894-4.256-3.609c-0.263-0.728-0.372-1.54-0.948-2.115c-1.092-1.091-3.314-0.623-4.269,0.558
						c-0.955,1.181-0.972,2.743-0.837,4.186c-4.365-5.685-9.239-11.63-16.529-14.137c-1.281-0.441-2.672-0.767-4.026-0.558
						c-1.354,0.209-2.65,1.077-2.868,2.263c-0.254,1.379,0.954,2.643,2.26,3.453c2.488,1.543,5.539,2.212,8.228,3.472
						c2.689,1.26,5.611,3.143,5.442,5.801c0,0,13.121,1.991,19.62,2.161C360.504,336.7,365.582,337.245,365.582,337.245z"/>
					<g style="opacity:0.8;">
						<path style="fill:#FFFFFF;" d="M365.582,337.245c0.299-1.831,1.961-3.432,4.018-3.87c0.693-0.148,1.437-0.18,2.056-0.489
							c0.619-0.31,1.048-1.047,0.649-1.565c-0.393-0.511-1.253-0.469-1.947-0.369c-1.586,0.228-3.171,0.456-4.757,0.684
							c1.278-1.284,2.556-2.567,3.833-3.851c0.505-0.508,1.04-1.203,0.673-1.796c-0.355-0.573-1.283-0.59-2.013-0.461
							c-2.495,0.442-4.783,1.716-6.294,3.505c-1.35,1.599-2.115,3.599-3.833,4.901c-1.552,1.177-3.799,1.613-5.78,1.122
							c-1.981-0.491-3.635-1.894-4.256-3.609c-0.263-0.728-0.372-1.54-0.948-2.115c-1.092-1.091-3.314-0.623-4.269,0.558
							c-0.955,1.181-0.972,2.743-0.837,4.186c-4.365-5.685-9.239-11.63-16.529-14.137c-1.281-0.441-2.672-0.767-4.026-0.558
							c-1.354,0.209-2.65,1.077-2.868,2.263c-0.254,1.379,0.954,2.643,2.26,3.453c2.488,1.543,5.539,2.212,8.228,3.472
							c2.689,1.26,5.611,3.143,5.442,5.801c0,0,13.121,1.991,19.62,2.161C360.504,336.7,365.582,337.245,365.582,337.245z"/>
					</g>
				</g>
			</g>
			<g>
				<path style="fill:#263238;" d="M317.51,345.461c-0.01,0.06-0.748,0.009-1.892-0.319c-1.142-0.324-2.678-0.974-4.175-2.017
					c-1.494-1.048-2.632-2.267-3.329-3.228c-0.701-0.962-1.003-1.637-0.95-1.667c0.136-0.102,1.647,2.449,4.578,4.469
					C314.644,344.756,317.56,345.299,317.51,345.461z"/>
			</g>
			<g>
				<path style="fill:#263238;" d="M315.026,347.821c-0.01,0.06-0.748,0.008-1.893-0.32c-1.142-0.324-2.678-0.974-4.175-2.017
					c-1.494-1.048-2.632-2.267-3.33-3.228c-0.701-0.962-1.003-1.637-0.95-1.667c0.136-0.102,1.647,2.449,4.578,4.469
					C312.159,347.116,315.075,347.659,315.026,347.821z"/>
			</g>
			<g>
				<path style="fill:#263238;" d="M402.954,337.876c0.033,0.014-0.059,0.289-0.254,0.775c-0.188,0.488-0.516,1.173-0.969,1.993
					c-0.899,1.642-2.4,3.789-4.459,5.79c-2.066,1.995-4.26,3.426-5.93,4.272c-0.834,0.426-1.529,0.732-2.023,0.904
					c-0.492,0.179-0.769,0.262-0.782,0.229c-0.034-0.082,1.026-0.534,2.628-1.456c1.602-0.918,3.718-2.367,5.744-4.323
					c2.019-1.962,3.535-4.03,4.504-5.602C402.387,338.885,402.874,337.84,402.954,337.876z"/>
			</g>
			<g>
				<path style="fill:#263238;" d="M407.755,339.936c0.059,0.024-0.145,0.721-0.662,1.772c-0.514,1.05-1.373,2.438-2.556,3.785
					c-1.186,1.344-2.454,2.373-3.431,3.016c-0.977,0.646-1.643,0.936-1.674,0.881c-0.091-0.139,2.408-1.596,4.713-4.241
					C406.477,342.528,407.606,339.863,407.755,339.936z"/>
			</g>
		</g>
		<g>
			<g>
				<path style="fill:#FFBF9D;" d="M383.677,274.049l9.285-2.573c0,0,7.668,1.156,9.645-0.315c1.976-1.471,1.044-2.317,1.044-2.317
					c4.176-1.578,2.687-3.432,2.687-3.432s4.153-0.318,4.227-3.594c0.043-1.905-15.834-5.067-15.834-5.067s0.148-2.053,1.768-3.214
					c1.62-1.16,10.978,1.086,13.851,0.212c2.873-0.873,2.666-3.7,2.666-3.7s-19.638-3.992-23.775-2.269
					c-4.137,1.723-23.994,9.996-27.017,14.006l6.604,13.774c0,0,0.405,0.205,3.691,1.102
					C375.806,277.559,383.677,274.049,383.677,274.049z"/>
			</g>
			<g>
				<g>
					<path style="fill:#FF9A6C;" d="M373.007,270.648c0.002-0.075,0.765-0.061,2.112-0.245c1.338-0.193,3.287-0.616,5.426-1.743
						c1.067-0.558,2.171-1.296,3.219-2.24c0.534-0.462,1.027-1.001,1.515-1.569c0.486-0.576,0.955-1.233,1.589-1.825
						c0.604-0.592,1.526-1.111,2.502-1.069c0.92,0.012,1.781,0.189,2.658,0.369c1.758,0.364,3.481,0.958,5.242,0.695
						c1.144-0.155,2.243-0.601,3.048-1.323c0.815-0.675,1.32-1.8,0.898-2.504l0.254,0.185c-5.59-1.354-10.58-1.95-14.102-2.468
						c-1.639-0.239-3.015-0.44-4.138-0.604c-0.964-0.156-1.485-0.265-1.479-0.314c0.006-0.05,0.538-0.035,1.512,0.033
						c0.974,0.068,2.392,0.187,4.168,0.362c3.547,0.375,8.557,0.861,14.239,2.185l0.164,0.038l0.091,0.147
						c0.387,0.627,0.335,1.405,0.094,2.008c-0.239,0.621-0.647,1.144-1.129,1.568c-0.959,0.864-2.217,1.366-3.506,1.542
						c-0.986,0.144-1.966,0.041-2.9-0.121c-0.891-0.204-1.768-0.405-2.632-0.603c-0.849-0.182-1.7-0.355-2.482-0.371
						c-0.753-0.035-1.401,0.316-1.963,0.832c-0.564,0.509-1.034,1.138-1.547,1.729c-0.524,0.589-1.053,1.144-1.622,1.616
						c-1.118,0.966-2.289,1.704-3.415,2.247c-2.257,1.1-4.289,1.439-5.666,1.533C373.766,270.82,373.004,270.691,373.007,270.648z"
						/>
				</g>
			</g>
			<g>
				<g>
					<path style="fill:#FF9A6C;" d="M391.997,262.96c0.22,0.076-0.229,1.932-1.242,4.04c-1.008,2.112-2.173,3.625-2.37,3.501
						c-0.207-0.127,0.608-1.808,1.593-3.873C390.969,264.567,391.768,262.879,391.997,262.96z"/>
				</g>
			</g>
			<g>
				<g>
					<path style="fill:#FF9A6C;" d="M402.775,268.458c-0.046,0.239-2.619-0.067-5.784-0.416c-3.165-0.356-5.742-0.624-5.734-0.867
						c0.006-0.232,2.625-0.349,5.83,0.011C400.291,267.539,402.821,268.23,402.775,268.458z"/>
				</g>
			</g>
			<g>
				<g>
					<path style="fill:#FF9A6C;" d="M407.547,265.583c-0.033,0.236-3.32-0.036-7.339-0.607c-4.021-0.571-7.252-1.225-7.219-1.46
						c0.033-0.235,3.319,0.036,7.34,0.608C404.349,264.694,407.581,265.348,407.547,265.583z"/>
				</g>
			</g>
			<g>
				<g>
					<path style="fill:#FF9A6C;" d="M394.373,252.239c0.235,0.002,0.412,1.199,0.235,2.659c-0.174,1.461-0.63,2.582-0.859,2.528
						c-0.235-0.054-0.164-1.22,0.004-2.631C393.924,253.386,394.132,252.236,394.373,252.239z"/>
				</g>
			</g>
		</g>
		<path style="fill:#FFBF9D;" d="M284.014,256.736l27.204,14.434l53.096-10.303l7.543,15.614c0,0-48.526,21.264-62.079,21.496
			c-13.553,0.232-38.187-15.745-38.187-15.745L284.014,256.736z"/>
		<g>
			<g>
				<path style="fill:#FF725E;" d="M349.609,271.88c0,0-6.448-1.251-7.615,3.568s4.616,6.031,4.616,6.031s-1.065,3.331,4.509,5.073
					c5.575,1.742,6.663-4.312,6.663-4.312s5.242,1.719,5.637-1.657c0.592-5.005-3.483-5.411-3.483-5.411s4.019-4.898-2.548-6.843
					C350.821,266.385,349.609,271.88,349.609,271.88z M356.576,270.454c3.794,0.8,1.296,5.53,1.296,5.53s4.289,0.975,3.444,3.506
					c-0.845,2.531-5.073,0.879-5.073,0.879s1.55,4.323-3.647,4.374c-5.197,0.051-3.049-4.425-3.049-4.425s-4.216,0.395-5.112-3.619
					c-0.896-4.013,6.392-2.818,6.392-2.818C351.046,270.483,352.777,269.648,356.576,270.454z"/>
				<g style="opacity:0.3;">
					<path d="M349.609,271.88c0,0-6.448-1.251-7.615,3.568s4.616,6.031,4.616,6.031s-1.065,3.331,4.509,5.073
						c5.575,1.742,6.663-4.312,6.663-4.312s5.242,1.719,5.637-1.657c0.592-5.005-3.483-5.411-3.483-5.411s4.019-4.898-2.548-6.843
						C350.821,266.385,349.609,271.88,349.609,271.88z M356.576,270.454c3.794,0.8,1.296,5.53,1.296,5.53s4.289,0.975,3.444,3.506
						c-0.845,2.531-5.073,0.879-5.073,0.879s1.55,4.323-3.647,4.374c-5.197,0.051-3.049-4.425-3.049-4.425s-4.216,0.395-5.112-3.619
						c-0.896-4.013,6.392-2.818,6.392-2.818C351.046,270.483,352.777,269.648,356.576,270.454z"/>
				</g>
				<path style="fill:#FF725E;" d="M349.705,270.635c0,0-6.448-1.257-7.615,3.562c-1.167,4.819,4.616,6.031,4.616,6.031
					s-1.065,3.331,4.509,5.073c5.575,1.742,6.668-4.306,6.668-4.306s5.242,1.719,5.637-1.657c0.592-5.011-3.483-5.411-3.483-5.411
					s4.019-4.898-2.548-6.843C350.922,265.139,349.705,270.635,349.705,270.635z M356.672,269.203
					c3.799,0.806,1.296,5.535,1.296,5.535s4.29,0.975,3.444,3.5c-0.845,2.525-5.073,0.879-5.073,0.879s1.55,4.323-3.647,4.38
					c-5.197,0.056-3.049-4.43-3.049-4.43s-4.216,0.395-5.112-3.613c-0.896-4.008,6.392-2.818,6.392-2.818
					C351.12,269.237,352.873,268.402,356.672,269.203L356.672,269.203z"/>
			</g>
			<g>
				<path style="fill:#FF725E;" d="M352.642,225.924c0,0-6.488,1.024-5.941,5.952c0.548,4.928,6.397,4.094,6.397,4.094
					s0.135,3.495,5.97,3.23c5.834-0.265,4.792-6.327,4.792-6.327s5.514-0.173,4.733-3.481c-1.152-4.907-5.121-3.898-5.121-3.898
					s2.107-5.976-4.73-5.563C351.906,220.344,352.642,225.924,352.642,225.924z M358.705,222.206
					c3.839-0.542,3.105,4.756,3.105,4.756s4.365-0.547,4.434,2.121c0.069,2.667-4.469,2.557-4.469,2.557s2.932,3.535-1.936,5.356
					c-4.868,1.821-4.376-3.119-4.376-3.119s-3.829,1.81-6.04-1.657c-2.212-3.467,5.047-4.83,5.047-4.83
					C353.516,224.119,354.858,222.745,358.705,222.206z"/>
				<g style="opacity:0.3;">
					<path d="M352.642,225.924c0,0-6.488,1.024-5.941,5.952c0.548,4.928,6.397,4.094,6.397,4.094s0.135,3.495,5.97,3.23
						c5.834-0.265,4.792-6.327,4.792-6.327s5.514-0.173,4.733-3.481c-1.152-4.907-5.121-3.898-5.121-3.898s2.107-5.976-4.73-5.563
						C351.906,220.344,352.642,225.924,352.642,225.924z M358.705,222.206c3.839-0.542,3.105,4.756,3.105,4.756
						s4.365-0.547,4.434,2.121c0.069,2.667-4.469,2.557-4.469,2.557s2.932,3.535-1.936,5.356c-4.868,1.821-4.376-3.119-4.376-3.119
						s-3.829,1.81-6.04-1.657c-2.212-3.467,5.047-4.83,5.047-4.83C353.516,224.119,354.858,222.745,358.705,222.206z"/>
				</g>
				<path style="fill:#FF725E;" d="M352.307,224.72c0,0-6.49,1.019-5.943,5.947c0.548,4.928,6.397,4.094,6.397,4.094
					s0.135,3.495,5.97,3.23c5.834-0.265,4.799-6.323,4.799-6.323s5.514-0.173,4.733-3.481c-1.153-4.912-5.121-3.898-5.121-3.898
					s2.107-5.976-4.73-5.563C351.577,219.139,352.307,224.72,352.307,224.72z M358.368,220.997c3.846-0.539,3.107,4.761,3.107,4.761
					s4.365-0.547,4.432,2.115c0.067,2.662-4.469,2.557-4.469,2.557s2.932,3.535-1.934,5.361c-4.866,1.826-4.378-3.124-4.378-3.124
					s-3.829,1.809-6.039-1.652c-2.21-3.461,5.047-4.83,5.047-4.83C353.16,222.923,354.523,221.541,358.368,220.997L358.368,220.997z
					"/>
			</g>
			<g>
				<path style="fill:#E0E0E0;" d="M342.493,249.656c0,0-4.097,0.178-4.342,3.147c-0.245,2.969,0.902,7.833,8.017,8.894
					s7.974-7.796,7.974-7.796S352.086,249.258,342.493,249.656z"/>
				<g style="opacity:0.21;">
					<path style="fill:#263238;" d="M346.529,257.661c3.938,0.184,6.281-1.515,7.452-2.766c0.123-0.613,0.166-0.994,0.166-0.994
						s-2.061-4.643-11.654-4.245c0,0-4.097,0.178-4.342,3.146c0,0.202,0,0.411-0.031,0.613
						C339.617,255.054,342.481,257.464,346.529,257.661z"/>
				</g>
				<path style="fill:#E0E0E0;" d="M343.278,247.718l-1.172,5.134c0,0,2.043,2.411,5.017,2.245s2.969-1.282,2.969-1.282l1.227-5.256
					c0,0-2.631-1.926-5.52-2.006C342.91,246.473,343.278,247.718,343.278,247.718z"/>
			</g>
			<g>
				<path style="fill:#E0E0E0;" d="M321.112,284.232c0,0-2.599,3.173-0.549,5.335c2.049,2.162,6.44,4.549,11.973-0.047
					c5.534-4.596-0.496-11.14-0.496-11.14S327.209,276.815,321.112,284.232z"/>
				<g style="opacity:0.21;">
					<path style="fill:#263238;" d="M329.769,286.559c2.762-2.813,3.057-5.692,2.906-7.399c-0.376-0.5-0.63-0.786-0.63-0.786
						s-4.835-1.559-10.932,5.858c0,0-2.599,3.173-0.549,5.334c0.151,0.135,0.306,0.274,0.437,0.432
						C323.218,289.974,326.924,289.446,329.769,286.559z"/>
				</g>
				<path style="fill:#E0E0E0;" d="M320.19,282.355l3.046,4.295c0,0,3.158,0.084,5.018-2.244c1.859-2.328,1.023-3.068,1.023-3.068
					l-3.101-4.418c0,0-3.19,0.678-5.175,2.778C319.017,281.799,320.19,282.355,320.19,282.355z"/>
			</g>
			<g>
				<path style="fill:#E0E0E0;" d="M367.13,284.009c0,0,2.775,1.956,4.433,0.139c1.658-1.818,3.372-5.592-0.763-9.893
					c-4.135-4.301-9.172,1.082-9.172,1.082S360.636,279.422,367.13,284.009z"/>
				<g style="opacity:0.21;">
					<path style="fill:#263238;" d="M368.524,276.724c-1.692-1.569-4.002-2.288-6.286-1.956c-0.382,0.326-0.611,0.569-0.611,0.569
						s-0.992,4.086,5.502,8.672c0,0,2.775,1.956,4.433,0.139c0.111-0.125,0.222-0.257,0.333-0.402
						C371.74,281.052,370.529,278.529,368.524,276.724z"/>
				</g>
				<path style="fill:#E0E0E0;" d="M365.631,284.917l3.365-2.775c-0.112-1.584-0.898-3.043-2.158-4.01
					c-2.04-1.388-2.595-0.659-2.595-0.659l-3.469,2.831c0.49,1.577,1.387,2.996,2.602,4.114
					C365.25,285.896,365.631,284.917,365.631,284.917z"/>
			</g>
			<g>
				<path style="fill:#AE7461;" d="M350.941,318.366c0,0-7.068,2.812-11.789-6.145c-4.722-8.957-4.009-17.335,2.398-19.245
					c6.408-1.91,8.508,1.303,9.823,3.62c1.315,2.317,4.453,7.502,5.017,12.185C356.684,311.422,355.219,317.04,350.941,318.366z"/>
				<path style="opacity:0.3;fill:#6F4439;" d="M350.826,315.775c1.374-0.615,2.504-1.671,3.211-3.001l-0.035,0.054l0.048-0.075
					l0.109-0.17c0.072-0.112,0.115-0.247,0.167-0.372l0.063-0.098l-0.054,0.085c0.406-1.178,0.511-2.44,0.303-3.668
					c-0.076-0.736-0.259-1.456-0.544-2.139c-0.284-0.684-0.813-1.238-1.483-1.554c-0.771-0.294-1.636-0.211-2.337,0.225
					c-0.691,0.436-1.223,1.084-1.518,1.846c-0.288,0.696-0.412,1.449-0.671,2.159c-0.214,0.731-0.708,1.349-1.374,1.718
					c-0.568,0.258-1.23,0.217-1.819,0.433c-1.037,0.422-1.609,1.54-1.344,2.628c0.269,0.991,1.198,1.663,2.154,2.031
					C347.357,316.517,349.197,316.48,350.826,315.775z"/>
				<path style="opacity:0.3;fill:#6F4439;" d="M343.577,294.004c-1.486,0.22-2.856,0.928-3.894,2.013l0.035-0.054l-0.048,0.075
					l-0.137,0.147c-0.074,0.115-0.18,0.206-0.262,0.311l-0.063,0.098l0.054-0.085c-0.72,1.009-1.178,2.182-1.33,3.412
					c-0.13,0.723-0.155,1.462-0.075,2.192c0.086,0.736,0.443,1.414,1.002,1.901c0.66,0.493,1.512,0.652,2.305,0.429
					c0.785-0.232,1.474-0.709,1.969-1.361c0.469-0.59,0.793-1.282,1.22-1.903c0.407-0.645,1.052-1.102,1.796-1.271
					c0.611-0.087,1.244,0.127,1.866,0.076c1.114-0.116,1.974-1.034,2.017-2.154c0.012-1.026-0.685-1.918-1.513-2.545
					C347.102,294.23,345.329,293.771,343.577,294.004z"/>
				<path style="opacity:0.3;fill:#6F4439;" d="M344.733,305.724c-0.281,0.004-0.558,0.062-0.817,0.17l-1.621,0.55
					c-0.418,0.144-0.892,0.338-1.029,0.776c-0.082,0.288,0.024,0.596,0.265,0.773c0.237,0.171,0.538,0.225,0.82,0.147l-0.069,0.004
					c0.887-0.044,1.748-0.316,2.499-0.792c0.217-0.124,0.403-0.293,0.548-0.496c0.144-0.208,0.175-0.474,0.081-0.709
					C345.279,305.893,345.019,305.73,344.733,305.724z"/>
				<path style="fill:#FFFFFF;" d="M337.866,297.359c0.03,0.02-0.173,0.531-0.392,1.395c-0.571,2.267-0.512,4.646,0.17,6.882
					c0.26,0.856,0.494,1.365,0.459,1.375c-0.079-0.104-0.144-0.218-0.194-0.34c-0.156-0.32-0.291-0.65-0.406-0.988
					c-0.772-2.25-0.832-4.683-0.171-6.969c0.098-0.342,0.217-0.678,0.358-1.006C337.729,297.585,337.789,297.467,337.866,297.359z"
					/>
				<path style="fill:#FFFFFF;" d="M339.776,294.961c0.047,0.03-0.163,0.322-0.457,0.631c-0.294,0.309-0.562,0.511-0.623,0.472
					c-0.061-0.039,0.163-0.321,0.463-0.632C339.458,295.121,339.735,294.92,339.776,294.961z"/>
				<path style="fill:#FFFFFF;" d="M341.482,313.754c-0.673-0.407-1.152-1.069-1.326-1.836c0.239,0.293,0.456,0.603,0.649,0.928
					C341.052,313.132,341.279,313.435,341.482,313.754z"/>
			</g>
			<g>
				<path style="fill:#AE7461;" d="M360.056,250.113c0,0-5.545-2.599-2.889-10.305c2.656-7.706,7.967-11.904,12.618-9.195
					c4.651,2.709,3.922,5.712,3.287,7.76c-0.635,2.048-1.95,6.747-4.388,9.658C367.296,249.658,363.191,251.893,360.056,250.113z"/>
				<path style="opacity:0.3;fill:#6F4439;" d="M361.513,248.618c1.118,0.468,2.361,0.549,3.531,0.231l-0.051,0.01l0.07-0.013
					l0.16-0.03c0.105-0.02,0.208-0.068,0.31-0.107l0.092-0.017l-0.08,0.015c0.915-0.411,1.713-1.044,2.32-1.844
					c0.39-0.45,0.712-0.954,0.956-1.497c0.245-0.544,0.279-1.159,0.095-1.727c-0.252-0.615-0.777-1.076-1.42-1.247
					c-0.637-0.165-1.31-0.121-1.92,0.126c-0.567,0.214-1.078,0.557-1.637,0.796c-0.547,0.277-1.182,0.328-1.766,0.14
					c-0.464-0.191-0.805-0.603-1.256-0.829c-0.819-0.376-1.79-0.096-2.283,0.659c-0.433,0.704-0.316,1.619-0.006,2.383
					C359.166,246.991,360.202,248.05,361.513,248.618z"/>
				<path style="opacity:0.3;fill:#6F4439;" d="M370.299,232.368c-0.947-0.751-2.118-1.165-3.327-1.177l0.051-0.009l-0.07,0.013
					l-0.162,0c-0.109,0.02-0.22,0.008-0.327,0.018l-0.092,0.017l0.08-0.015c-0.989,0.133-1.93,0.511-2.736,1.099
					c-0.496,0.322-0.943,0.714-1.328,1.164c-0.385,0.456-0.586,1.039-0.564,1.636c0.074,0.659,0.45,1.246,1.018,1.589
					c0.569,0.333,1.228,0.475,1.884,0.406c0.604-0.05,1.189-0.241,1.789-0.333c0.603-0.117,1.227,0.011,1.735,0.354
					c0.388,0.311,0.611,0.801,0.983,1.137c0.682,0.59,1.694,0.589,2.375-0.003c0.609-0.559,0.748-1.459,0.66-2.29
					C372.107,234.562,371.4,233.268,370.299,232.368z"/>
				<path style="opacity:0.3;fill:#6F4439;" d="M364.056,239.504c-0.157-0.162-0.344-0.293-0.55-0.386l-1.216-0.648
					c-0.315-0.166-0.69-0.337-1.023-0.176c-0.214,0.111-0.336,0.343-0.308,0.582c0.03,0.233,0.164,0.44,0.365,0.562l-0.04-0.039
					c0.514,0.497,1.149,0.852,1.841,1.03c0.192,0.059,0.394,0.075,0.593,0.048c0.202-0.03,0.375-0.158,0.461-0.343
					C364.258,239.918,364.21,239.676,364.056,239.504z"/>
				<path style="fill:#FFFFFF;" d="M365.182,230.865c0.005,0.029-0.407,0.191-1.035,0.539c-1.645,0.914-3.009,2.259-3.946,3.891
					c-0.359,0.624-0.529,1.042-0.555,1.027c0.018-0.104,0.049-0.205,0.092-0.301c0.102-0.268,0.221-0.529,0.356-0.782
					c0.896-1.693,2.291-3.068,3.996-3.94c0.255-0.131,0.518-0.246,0.787-0.344C364.975,230.909,365.077,230.879,365.182,230.865z"/>
				<path style="fill:#FFFFFF;" d="M367.643,230.665c0.008,0.045-0.279,0.081-0.622,0.079c-0.344-0.002-0.609-0.048-0.62-0.106
					c-0.011-0.057,0.279-0.081,0.626-0.077C367.374,230.566,367.644,230.618,367.643,230.665z"/>
				<path style="fill:#FFFFFF;" d="M357.551,242.02c-0.132-0.619-0.007-1.265,0.347-1.79c-0.04,0.302-0.103,0.6-0.187,0.893
					C357.68,241.425,357.626,241.725,357.551,242.02z"/>
			</g>
			<g>
				<path style="fill:#FF9A6C;" d="M336.992,250.477c-3.244,1.744-7.288,0.527-9.032-2.717c-1.744-3.244-0.527-7.288,2.717-9.032
					c3.229-1.736,7.254-0.539,9.011,2.679c1.765,3.233,0.575,7.285-2.658,9.049C337.017,250.464,337.004,250.47,336.992,250.477z"/>
				<g style="opacity:0.5;">
					<path style="fill:#FF725E;" d="M336.992,250.477c-3.244,1.744-7.288,0.527-9.032-2.717c-1.744-3.244-0.527-7.288,2.717-9.032
						c3.229-1.736,7.254-0.539,9.011,2.679c1.765,3.233,0.575,7.285-2.658,9.049C337.017,250.464,337.004,250.47,336.992,250.477z"
						/>
				</g>
				<path style="fill:#FF9A6C;" d="M336.372,249.334c-3.244,1.744-7.288,0.527-9.032-2.717c-1.744-3.244-0.527-7.288,2.717-9.032
					c3.229-1.736,7.254-0.539,9.011,2.679c1.765,3.233,0.575,7.285-2.658,9.049C336.398,249.32,336.385,249.327,336.372,249.334z"/>
				<g style="opacity:0.3;">
					<path style="fill:#FFFFFF;" d="M335.067,246.952c-1.887,1.024-4.246,0.325-5.271-1.561c-1.024-1.887-0.325-4.247,1.561-5.271
						c1.887-1.024,4.247-0.325,5.271,1.561c0,0.001,0.001,0.002,0.001,0.002C337.652,243.57,336.953,245.928,335.067,246.952z"/>
				</g>
				<path style="fill:#FF9A6C;" d="M334.4,245.685c-1.873,0.366-3.377-0.081-3.358-0.998c-0.652-1.203-0.205-2.706,0.998-3.358
					c1.203-0.652,2.706-0.205,3.358,0.998c0.001,0.002,0.002,0.003,0.002,0.004c0.651,1.197,0.209,2.695-0.988,3.347
					C334.408,245.681,334.404,245.683,334.4,245.685z"/>
			</g>
			<g>
				<path style="fill:#FF9A6C;" d="M372.78,254.274c2.945-1.453,6.509-0.243,7.962,2.701c1.453,2.945,0.243,6.509-2.701,7.962
					c-2.945,1.453-6.509,0.243-7.962-2.701C368.625,259.291,369.835,255.726,372.78,254.274z"/>
				<g style="opacity:0.5;">
					<path style="fill:#FF725E;" d="M372.78,254.274c2.945-1.453,6.509-0.243,7.962,2.701c1.453,2.945,0.243,6.509-2.701,7.962
						c-2.945,1.453-6.509,0.243-7.962-2.701C368.625,259.291,369.835,255.726,372.78,254.274z"/>
				</g>
				<path style="fill:#FF9A6C;" d="M377.689,263.846c-2.884,1.55-6.479,0.469-8.029-2.415c-1.55-2.884-0.469-6.479,2.415-8.029
					c2.871-1.543,6.449-0.479,8.01,2.381c1.569,2.874,0.511,6.475-2.363,8.044C377.711,263.833,377.7,263.84,377.689,263.846z"/>
				<g style="opacity:0.3;">
					<path style="fill:#FFFFFF;" d="M371.59,257.681c0.546-1.824,2.468-2.859,4.291-2.313c1.824,0.546,2.859,2.468,2.313,4.291
						c-0.546,1.824-2.468,2.859-4.291,2.313C372.079,261.425,371.044,259.504,371.59,257.681z"/>
				</g>
				<path style="fill:#FF9A6C;" d="M375.936,260.602c-1.07,0.577-2.406,0.178-2.983-0.893c-0.577-1.07-0.178-2.406,0.893-2.983
					c1.068-0.576,2.401-0.18,2.98,0.887c0.581,1.068,0.185,2.405-0.883,2.986C375.94,260.6,375.938,260.601,375.936,260.602z"/>
			</g>
			<g>
				<path style="fill:#455A64;" d="M318.364,296.303c-0.302,3.18,0.909,6.317,3.269,8.469c2.236,2.119,5.365,3.017,8.385,2.405
					c0.265-5.757-4.187-10.638-9.944-10.902c-0.571-0.026-1.143-0.006-1.71,0.062V296.303z"/>
				<path style="fill:#263238;" d="M320.973,298.496c0.102-0.076,1.897,2.261,4.514,4.76c2.617,2.498,5.005,4.235,4.929,4.328
					c-0.594-0.259-1.149-0.598-1.651-1.008c-2.535-1.827-4.796-4.005-6.716-6.47C321.612,299.625,321.249,299.083,320.973,298.496z"
					/>
			</g>
			<g>
				<path style="fill:#455A64;" d="M339.964,217.413c-2.142,2.37-3.045,5.609-2.438,8.745c0.527,3.036,2.5,5.624,5.287,6.938
					c3.651-4.458,2.997-11.032-1.461-14.684c-0.442-0.362-0.913-0.687-1.408-0.972L339.964,217.413z"/>
				<path style="fill:#263238;" d="M340.746,220.73c0.127,0,0.17,2.947,0.776,6.514c0.606,3.567,1.484,6.386,1.367,6.415
					c-0.321-0.563-0.564-1.167-0.722-1.795c-0.941-2.979-1.453-6.077-1.52-9.201C340.584,222.018,340.617,221.366,340.746,220.73z"
					/>
			</g>
			<g>
				<path style="fill:#455A64;" d="M401.983,273.75c-3.262-2.517-7.515-3.361-11.491-2.278c-3.863,0.986-7.006,3.785-8.431,7.508
					c6.129,4.271,14.559,2.766,18.831-3.363C401.305,275.025,401.67,274.4,401.983,273.75L401.983,273.75z"/>
				<path style="fill:#263238;" d="M397.814,275.093c0.021,0.172-3.767,0.489-8.309,1.647c-4.542,1.158-8.084,2.559-8.149,2.401
					c0.697-0.47,1.456-0.841,2.256-1.102c1.871-0.757,3.794-1.378,5.754-1.856c1.957-0.498,3.948-0.855,5.957-1.067
					C396.148,274.991,396.987,274.984,397.814,275.093z"/>
			</g>
			<g>
				<path style="fill:#455A64;" d="M334.856,268.294c-0.022,1.423-2.23,2.539-4.93,2.496c-2.7-0.043-4.872-1.233-4.851-2.638
					c-0.051,0.541-0.061,1.086-0.028,1.628c-0.022,1.423,2.148,2.609,4.845,2.654s4.911-1.075,4.933-2.497
					C334.87,269.391,334.88,268.842,334.856,268.294z"/>
				<path style="fill:#263238;" d="M329.983,267.268c2.162,0.033,3.981,0.801,4.608,1.836c0.165-0.238,0.257-0.52,0.265-0.81
					c0.022-1.423-2.148-2.609-4.845-2.654c-2.697-0.045-4.911,1.075-4.935,2.512c-0.001,0.29,0.082,0.574,0.24,0.817
					C325.985,267.946,327.824,267.233,329.983,267.268z"/>
			</g>
			<g>
				<path style="fill:#455A64;" d="M363.692,255.63c0.565,0.544,0.184,1.852-0.849,2.923c-1.032,1.071-2.328,1.498-2.886,0.961
					c0.199,0.224,0.414,0.433,0.645,0.624c0.565,0.544,1.858,0.116,2.89-0.953c1.032-1.069,1.414-2.381,0.849-2.925
					C364.139,256.036,363.922,255.826,363.692,255.63z"/>
				<path style="fill:#263238;" d="M361.447,257.206c0.826-0.858,1.819-1.302,2.472-1.165c-0.034-0.156-0.113-0.299-0.226-0.411
					c-0.565-0.544-1.858-0.116-2.89,0.953c-1.032,1.069-1.414,2.381-0.844,2.932c0.116,0.109,0.262,0.182,0.419,0.21
					C360.217,259.071,360.621,258.062,361.447,257.206z"/>
			</g>
			<g>
				<path style="fill:#455A64;" d="M371.222,205.124c0.382,1.105-1.01,2.586-3.108,3.31c-2.097,0.724-4.109,0.415-4.486-0.677
					c0.112,0.432,0.258,0.855,0.435,1.266c0.382,1.105,2.391,1.413,4.487,0.691c2.096-0.721,3.492-2.207,3.109-3.313
					C371.54,205.967,371.394,205.541,371.222,205.124z"/>
				<path style="fill:#263238;" d="M367.17,205.699c1.679-0.581,3.3-0.498,4.074,0.125c0.06-0.23,0.053-0.474-0.022-0.7
					c-0.382-1.105-2.391-1.413-4.487-0.691c-2.096,0.721-3.491,2.207-3.107,3.325c0.081,0.224,0.225,0.42,0.414,0.564
					C364.272,207.344,365.492,206.277,367.17,205.699z"/>
			</g>
			<g>
				<g>
					<path style="fill:#FF725E;" d="M375.496,286.894l-13.844,11.158c-0.426,0.343-0.515,0.958-0.201,1.406
						c0.895,1.276,2.261,2.497,4.228,3.586c10,5.534,16.28-4.835,14.891-10.879c-0.446-1.939-1.833-3.92-3.826-5.317
						C376.367,286.584,375.856,286.604,375.496,286.894z"/>
					<path style="opacity:0.3;" d="M375.496,286.894l-13.844,11.158c-0.426,0.343-0.515,0.958-0.201,1.406
						c0.895,1.276,2.261,2.497,4.228,3.586c10,5.534,16.28-4.835,14.891-10.879c-0.446-1.939-1.833-3.92-3.826-5.317
						C376.367,286.584,375.856,286.604,375.496,286.894z"/>
					<path style="fill:#FF725E;" d="M374.763,286.224l-13.844,11.158c-0.426,0.343-0.515,0.958-0.201,1.407
						c0.895,1.276,2.261,2.497,4.228,3.586c10,5.534,16.28-4.835,14.891-10.879c-0.446-1.939-1.833-3.92-3.826-5.317
						C375.633,285.913,375.122,285.934,374.763,286.224z"/>
					<path style="opacity:0.3;" d="M373.599,287.557c0.358-0.518,4.871,1.104,4.852,4.867c-0.018,3.763-1.079,6.572-2.748,6.662
						c-1.669,0.09-3.757-2.979-3.841-5.793C371.777,290.478,373.171,288.177,373.599,287.557z"/>
					<path style="opacity:0.3;" d="M362.361,297.188c0.026-0.731,3.827-2.807,6.352-2.34c2.525,0.467,5.448,4.643,5.343,5.752
						c-0.109,1.148-4.816,1.759-7.168,0.963C364.536,300.766,362.322,298.268,362.361,297.188z"/>
					<path style="fill:#FF725E;" d="M366.965,296.046c-0.304-0.321-3.207,1.604-2.556,2.261
						C365.061,298.965,367.62,296.739,366.965,296.046z"/>
					<path style="fill:#FF725E;" d="M370.733,297.592c0.408-0.115,1.838,2.993,0.776,3.038
						C370.447,300.675,370.326,297.708,370.733,297.592z"/>
					<path style="fill:#FF725E;" d="M369.015,296.712c0.505,0.1,0.045,4.163-1.321,4.022
						C366.327,300.593,368.51,296.611,369.015,296.712z"/>
					<path style="fill:#FF725E;" d="M373.426,292.047c-0.246-0.772,3.489-1.691,3.6-0.883
						C377.137,291.972,373.753,293.071,373.426,292.047z"/>
					<path style="fill:#FF725E;" d="M373.399,290.55c0.416,0.345,2.331-1.2,1.782-1.681
						C374.631,288.388,372.984,290.205,373.399,290.55z"/>
					<path style="fill:#FF725E;" d="M373.207,293.62c-0.035,0.308,3.318,1.081,3.215,0.423
						C376.319,293.386,373.294,292.849,373.207,293.62z"/>
					<path style="fill:#FF725E;" d="M372.764,294.897c-0.368,0.587,1.653,2.834,2.172,2.357
						C375.457,296.778,373.29,294.059,372.764,294.897z"/>
				</g>
				<g>
					<path style="fill:#FFFFFF;" d="M371.996,288.935c0.006,0.006-0.075,0.102-0.228,0.271c-0.152,0.169-0.379,0.408-0.665,0.698
						c-0.572,0.579-1.39,1.352-2.344,2.149c-0.955,0.796-1.861,1.464-2.533,1.923c-0.336,0.23-0.611,0.41-0.805,0.53
						c-0.193,0.12-0.302,0.183-0.307,0.176c-0.005-0.007,0.095-0.084,0.28-0.216c0.203-0.146,0.466-0.335,0.781-0.562
						c0.657-0.477,1.552-1.153,2.504-1.947c0.95-0.794,1.776-1.554,2.362-2.116c0.279-0.27,0.512-0.494,0.692-0.668
						C371.897,289.013,371.99,288.928,371.996,288.935z"/>
				</g>
			</g>
		</g>
		<g>
			<path style="fill:#FF725E;" d="M241.146,207.074c0,0,13.939,11.076,18.372,17.971c4.433,6.895,39.894,31.045,39.401,31.899
				c-0.493,0.854-21.671,35.822-21.671,35.822l-11.768-5.945l-24.335-78.522"/>
			<path style="fill:#FF725E;" d="M191.607,336.278c0,0-26.437,41.716-29.11,57.608l29.11,11.919V336.278z"/>
			<path style="fill:#FF725E;" d="M174.046,201.307c0,1.048-4.98,14.154-4.98,14.154l-25.949,28.57l50.063,81.516l4.98,12.319
				l77.06-4.456c0,0-11.009-58.451-11.795-68.149c-0.786-9.698-22.279-58.189-22.279-58.189l-25.949,2.883l-7.601-2.621
				L174.046,201.307z"/>
			<path style="fill:#263238;" d="M190.004,336.678c-0.971-0.388-6.007,16.444-14.567,47.222
				c-8.56,30.779-2.703,93.674-2.703,93.674h132.898c0,0-8.79-69.632-20.272-103.487c-11.332-33.412-10.734-54.409-13.251-54.191
				C269.592,320.113,190.004,336.678,190.004,336.678z"/>
			<g>
				<path style="fill:#263238;" d="M267.26,289.694c-0.009,0.001-0.032-0.074-0.069-0.223c-0.04-0.18-0.09-0.398-0.15-0.663
					c-0.12-0.585-0.302-1.447-0.563-2.551c-0.521-2.206-1.333-5.389-2.639-9.226c-1.304-3.831-3.023-8.365-5.523-13.089
					c-2.628-4.657-5.871-9.595-9.547-14.565c-7.345-9.963-15.088-18.132-21.129-23.53c-2.995-2.734-5.603-4.729-7.391-6.123
					c-0.889-0.646-1.594-1.158-2.113-1.534c-0.217-0.164-0.396-0.299-0.543-0.41c-0.121-0.095-0.18-0.147-0.175-0.155
					c0.005-0.007,0.074,0.03,0.205,0.11c0.155,0.1,0.343,0.221,0.572,0.368c0.534,0.358,1.259,0.844,2.174,1.458
					c1.83,1.346,4.481,3.304,7.517,6.011c6.123,5.345,13.935,13.502,21.303,23.496c3.689,4.989,6.925,9.941,9.551,14.646
					c2.5,4.781,4.185,9.339,5.451,13.201c1.266,3.866,2.026,7.074,2.488,9.299c0.232,1.113,0.382,1.983,0.469,2.575
					c0.039,0.27,0.072,0.491,0.099,0.673C267.263,289.614,267.269,289.693,267.26,289.694z"/>
			</g>
			<path style="fill:#FF725E;" d="M143.117,244.031c0,0-4.893,5.637-3.105,18.35c1.788,12.713,22.484,70.295,22.484,70.295
				l45.364-15.296l-24.036-47.794l-16.657-20.879L143.117,244.031z"/>
			<g>
				<path style="fill:#263238;" d="M265.473,277.494c-0.017,0.004-0.072-0.151-0.161-0.449c-0.099-0.358-0.219-0.79-0.363-1.31
					c-0.327-1.22-0.764-2.849-1.294-4.825c-1.105-4.07-2.721-9.668-4.741-15.775c-2.026-6.108-4.072-11.564-5.615-15.488
					c-0.755-1.902-1.377-3.469-1.843-4.643c-0.195-0.503-0.357-0.921-0.491-1.267c-0.107-0.292-0.155-0.449-0.139-0.456
					c0.016-0.007,0.097,0.136,0.235,0.414c0.159,0.336,0.351,0.742,0.581,1.229c0.498,1.071,1.182,2.637,1.998,4.585
					c1.633,3.895,3.738,9.342,5.768,15.463c2.025,6.12,3.587,11.746,4.603,15.846c0.509,2.049,0.894,3.715,1.134,4.871
					c0.106,0.529,0.195,0.969,0.268,1.333C265.47,277.327,265.491,277.49,265.473,277.494z"/>
			</g>
			<g>
				<path style="fill:#263238;" d="M162.496,332.677c-0.002-0.007,0.069-0.038,0.211-0.093c0.163-0.061,0.372-0.138,0.635-0.235
					c0.589-0.208,1.416-0.501,2.477-0.876c2.198-0.758,5.36-1.849,9.338-3.222c8.035-2.734,19.357-6.586,32.625-11.1l-0.139,0.339
					c-3.878-7.64-8.135-16.027-12.59-24.806c-2.361-4.663-4.665-9.215-6.891-13.611c-1.066-2.227-2.331-4.28-3.484-6.355
					c-1.169-2.062-2.326-4.072-3.475-6.02c-2.301-3.894-4.602-7.529-7.019-10.735c-1.221-1.592-2.475-3.07-3.788-4.383
					c-1.307-1.321-2.752-2.369-4.2-3.264c-2.896-1.793-5.822-2.881-8.448-3.52c-2.63-0.654-4.973-0.852-6.879-0.87
					c-1.911-0.033-3.386,0.171-4.386,0.277c-0.477,0.075-0.852,0.135-1.131,0.179c-0.256,0.038-0.388,0.053-0.39,0.044
					c-0.002-0.009,0.127-0.041,0.379-0.096c0.279-0.057,0.651-0.133,1.126-0.23c0.998-0.14,2.478-0.377,4.402-0.376
					c1.919-0.014,4.284,0.156,6.946,0.789c2.657,0.619,5.626,1.694,8.572,3.49c1.467,0.893,2.954,1.958,4.288,3.291
					c1.339,1.323,2.613,2.81,3.85,4.408c2.449,3.217,4.771,6.857,7.089,10.752c1.157,1.949,2.321,3.959,3.495,6.019
					c1.154,2.066,2.435,4.139,3.501,6.36c2.23,4.396,4.538,8.948,6.903,13.61c4.446,8.787,8.693,17.182,12.562,24.83l0.127,0.25
					l-0.265,0.089c-13.293,4.441-24.636,8.232-32.685,10.921c-3.997,1.316-7.174,2.363-9.382,3.091
					c-1.072,0.344-1.907,0.612-2.502,0.803c-0.268,0.082-0.481,0.146-0.648,0.197C162.574,332.665,162.498,332.684,162.496,332.677z
					"/>
			</g>
			<g>
				<path style="fill:#263238;" d="M205.483,234.076c-0.066,0.128-8.235-3.952-18.244-9.11c-10.013-5.161-18.073-9.446-18.008-9.574
					c0.066-0.128,8.233,3.951,18.246,9.111C197.487,229.661,205.549,233.948,205.483,234.076z"/>
			</g>
			<g>
				<path style="fill:#263238;" d="M215.336,210.615c0.143-0.011,0.585,4.305,0.986,9.639c0.401,5.335,0.61,9.668,0.467,9.679
					c-0.143,0.011-0.585-4.304-0.986-9.64C215.401,214.959,215.192,210.626,215.336,210.615z"/>
			</g>
			<g>
				<path style="fill:#263238;" d="M227.429,228.577c0.003,0.009-0.105,0.05-0.319,0.122c-0.24,0.078-0.553,0.179-0.949,0.308
					c-0.837,0.259-2.065,0.665-3.64,1.202c-3.149,1.077-7.67,2.747-13.168,5.027c-5.498,2.28-11.981,5.153-19.078,8.555
					c-1.764,0.895-3.725,1.51-5.402,2.617c-0.817,0.563-1.554,1.294-1.852,2.237c-0.33,0.932-0.213,1.991,0.172,2.932
					c0.81,1.921,2.497,3.382,3.98,5.017c0.754,0.813,1.514,1.632,2.279,2.457c0.729,0.856,1.462,1.719,2.2,2.586
					c2.898,3.513,5.578,7.068,7.966,10.635c2.428,3.54,4.599,7.067,6.605,10.46c3.984,6.805,7.227,13.124,9.837,18.48
					c2.603,5.361,4.586,9.756,5.923,12.807c0.649,1.506,1.158,2.687,1.518,3.523c0.159,0.385,0.285,0.689,0.381,0.922
					c0.083,0.209,0.122,0.318,0.113,0.321c-0.008,0.004-0.063-0.098-0.162-0.3c-0.108-0.228-0.25-0.525-0.428-0.901
					c-0.381-0.826-0.92-1.993-1.607-3.482c-1.393-3.025-3.427-7.394-6.069-12.728c-2.649-5.33-5.922-11.622-9.92-18.399
					c-2.013-3.379-4.187-6.892-6.614-10.416c-2.386-3.552-5.059-7.091-7.944-10.589c-0.734-0.863-1.464-1.721-2.189-2.574
					c-0.76-0.821-1.516-1.636-2.266-2.445c-1.461-1.624-3.194-3.099-4.076-5.18c-0.42-1.028-0.557-2.22-0.178-3.286
					c0.349-1.086,1.186-1.896,2.051-2.488c1.783-1.164,3.73-1.757,5.475-2.639c7.117-3.382,13.622-6.223,19.145-8.463
					c5.524-2.239,10.071-3.859,13.244-4.878c1.587-0.508,2.826-0.883,3.674-1.11c0.402-0.108,0.721-0.193,0.964-0.258
					C227.314,228.593,227.426,228.569,227.429,228.577z"/>
			</g>
			<circle style="opacity:0.3;" cx="205.703" cy="260.866" r="3.465"/>
			<circle style="opacity:0.3;" cx="238.206" cy="247.424" r="3.465"/>
			<path style="opacity:0.3;" d="M227.429,294.514c0,1.914-1.551,3.465-3.465,3.465c-1.914,0-3.465-1.552-3.465-3.465
				c0-1.914,1.552-3.466,3.465-3.466C225.877,291.048,227.429,292.6,227.429,294.514z"/>
			<circle style="opacity:0.3;" cx="256.118" cy="283.467" r="3.465"/>
			<g>
				<path style="fill:#FF9A6C;" d="M280.408,337.453c0.061-0.135,1.093,0.209,2.376,0.555c1.282,0.352,2.346,0.578,2.33,0.725
					c-0.012,0.139-1.138,0.141-2.466-0.222C281.318,338.151,280.348,337.579,280.408,337.453z"/>
			</g>
		</g>
		<g>
			<path style="fill:#FFBF9D;" d="M169.661,330.261c0.169,0.901,14.771,21.605,26.453,21.605c11.681,0,69.244-17.253,69.244-17.253
				l-6.66-17.84l-57.603,8.656l-2.84-4.809L169.661,330.261z"/>
			<path style="fill:#FFBF9D;" d="M258.698,316.773c0.297-0.248,10.986-4.871,16.891-6.162c5.905-1.291,9.756-0.752,13.648,1.307
				c3.892,2.059,12.41,4.379,14.264,6.274c1.404,1.435,0.117,3.939-2.502,3.684c-2.619-0.254-12.688-2.504-12.901-2.48
				c-0.043,0.005-0.096,0.11-0.154,0.275c-0.453,1.291-0.063,2.73,0.936,3.665l6.822,6.393c0,0,0.096,2.862-1.789,3.391
				c-1.886,0.529-3.416,1.344-3.416,1.344s-0.767,3.862-3.754,4.188c-2.987,0.326-12.048-2.573-12.486-2.633
				c-0.438-0.06-8.898-1.405-8.898-1.405L258.698,316.773z"/>
			<g>
				<path style="fill:#FF9A6C;" d="M283.775,332.955c0.064-0.137,1.512,0.432,3.354,0.91c1.841,0.489,3.381,0.705,3.369,0.855
					c-0.005,0.136-1.606,0.151-3.501-0.352C285.1,333.876,283.713,333.077,283.775,332.955z"/>
			</g>
			<path style="fill:#FFBF9D;" d="M270.992,335.009c3.234,1.506,6.467,3.012,9.701,4.517c0.693,0.323,1.447,0.654,2.197,0.503
				c1.123-0.226,1.747-1.401,2.217-2.446"/>
		</g>
		<g>
			<g>
				<g>
					<g>
						<g>
							<g>
								<g>
									<path style="fill:#263238;" d="M176.389,120.831c10.038-7.701,20.183-9.054,33.017-8.858
										c7.241,0.111,8.364-4.039,13.532-2.477c5.167,1.562,9.782,4.489,12.752,8.972c3.528,5.324,6.445,11.254,6.942,17.608
										c0.511,6.527,1.021,13.098,0.32,19.607c-0.007,0.065-0.014,0.13-0.021,0.195c-1.144,10.24-9.196,18.35-19.4,19.78
										l-4.109,0.576c-9.239,0.02-18.606,0.023-27.531-2.354c-8.925-2.377-13.136,21.538-16.507,12.991
										C163.981,157.957,166.231,128.623,176.389,120.831z"/>
								</g>
							</g>
						</g>
						<path style="fill:#FFBF9D;" d="M213.422,114.744l-6.673-0.991l-25.96,9.377c-3.709,0.07-6.748,2.966-6.995,6.668l2.009,72.113
							l31.974,20.162v11.023l8.189-2.73l-3.757-9.393c0.027-6.795-0.035-15.415-0.035-15.415s17.205-1.129,22.175-21.088
							c2.471-9.926,3.398-26.473,3.718-40.036C238.355,132.225,228.489,115.275,213.422,114.744z"/>
						<g>
							<g>
								<g>
									<path style="fill:#263238;" d="M228.418,161.036c-0.071,1.376-1.293,2.449-2.731,2.402
										c-1.434-0.047-2.543-1.197-2.472-2.572c0.07-1.375,1.293-2.45,2.727-2.403C227.38,158.509,228.488,159.661,228.418,161.036
										z"/>
								</g>
							</g>
						</g>
						<g>
							<g>
								<g>
									<path style="fill:#263238;" d="M233.258,151.066c-0.351,0.31-2.191-1.315-4.985-1.551
										c-2.787-0.275-4.962,0.985-5.235,0.616c-0.136-0.164,0.246-0.746,1.194-1.319c0.935-0.571,2.488-1.07,4.227-0.912
										c1.739,0.161,3.147,0.928,3.931,1.657C233.192,150.291,233.43,150.929,233.258,151.066z"/>
								</g>
							</g>
						</g>
						<g>
							<g>
								<g>
									<path style="fill:#263238;" d="M214.582,172.439c0-0.16,1.763-0.309,4.607-0.425c0.719-0.012,1.407-0.095,1.57-0.571
										c0.212-0.501-0.019-1.295-0.293-2.155c-0.521-1.784-1.066-3.654-1.638-5.614c-2.257-7.986-3.827-14.529-3.505-14.616
										c0.323-0.088,2.415,6.314,4.673,14.3c0.539,1.968,1.056,3.844,1.546,5.638c0.2,0.834,0.584,1.794,0.127,2.832
										c-0.239,0.516-0.795,0.857-1.264,0.941c-0.469,0.1-0.87,0.072-1.225,0.063
										C216.336,172.739,214.578,172.599,214.582,172.439z"/>
								</g>
							</g>
						</g>
						<g>
							<g>
								<g>
									<path style="fill:#FF9A6C;" d="M212.207,205.536c0,0-13.691-0.303-26.477-9.582c0,0,6.003,14.655,26.424,14.518
										L212.207,205.536z"/>
								</g>
							</g>
						</g>
						<g>
							<g>
								<g>
									<path style="fill:#263238;" d="M232.616,141.237c-0.528,0.641-2.628,0-5.145-0.009c-2.516-0.09-4.644,0.469-5.14-0.193
										c-0.219-0.321,0.112-0.962,1.038-1.573c0.913-0.609,2.443-1.113,4.173-1.08c1.729,0.036,3.233,0.598,4.114,1.243
										C232.551,140.272,232.849,140.925,232.616,141.237z"/>
								</g>
							</g>
						</g>
						<g>
							<g>
								<g>
									<path style="fill:#263238;" d="M197.334,159.034c-0.116,1.372,0.949,2.601,2.38,2.748c1.427,0.148,2.682-0.842,2.798-2.214
										c0.116-1.372-0.95-2.603-2.377-2.75C198.704,156.671,197.45,157.663,197.334,159.034z"/>
								</g>
							</g>
						</g>
						<g>
							<g>
								<g>
									<path style="fill:#263238;" d="M195.428,148.783c0.306,0.355,2.349-1.006,5.149-0.862c2.799,0.105,4.783,1.647,5.104,1.318
										c0.157-0.144-0.143-0.773-1.005-1.469c-0.849-0.692-2.321-1.397-4.065-1.475c-1.745-0.076-3.244,0.494-4.119,1.109
										C195.598,148.023,195.276,148.622,195.428,148.783z"/>
								</g>
							</g>
						</g>
						<g>
							<g>
								<g>
									<path style="fill:#263238;" d="M197.394,139.871c0.52,0.663,2.713,0.11,5.312,0.206c2.602,0.015,4.777,0.663,5.315,0.023
										c0.238-0.312-0.077-0.966-1.009-1.616c-0.918-0.646-2.477-1.214-4.265-1.254c-1.787-0.037-3.363,0.463-4.298,1.07
										C197.5,138.908,197.167,139.549,197.394,139.871z"/>
								</g>
							</g>
						</g>
						<g>
							<g>
								<g>
									<path style="fill:#FFBF9D;" d="M176.195,163.978c0.127-1.507-1.306-5.212-2.775-5.574
										c-3.921-0.964-11.113-1.267-12.056,8.822c-1.288,13.791,14.777,11.996,14.838,11.603
										C176.251,178.522,175.756,169.183,176.195,163.978z"/>
								</g>
							</g>
						</g>
						<g>
							<g>
								<g>
									<path style="fill:#FF9A6C;" d="M170.916,173.679c-0.056-0.05-0.256,0.146-0.679,0.294c-0.413,0.144-1.106,0.206-1.8-0.131
										c-1.407-0.671-2.417-3.098-2.251-5.59c0.082-1.259,0.456-2.429,0.993-3.378c0.516-0.969,1.234-1.613,1.98-1.674
										c0.745-0.101,1.223,0.387,1.357,0.79c0.149,0.403,0.035,0.671,0.106,0.701c0.035,0.039,0.318-0.203,0.26-0.782
										c-0.032-0.28-0.163-0.62-0.462-0.916c-0.305-0.3-0.779-0.482-1.296-0.475c-1.071-0.025-2.119,0.863-2.709,1.904
										c-0.649,1.04-1.099,2.353-1.192,3.766c-0.171,2.787,1.008,5.52,2.949,6.283c0.946,0.343,1.783,0.127,2.231-0.16
										C170.86,174.011,170.961,173.709,170.916,173.679z"/>
								</g>
							</g>
						</g>
						<g>
							<g>
								<g>
									<path style="fill:#263238;" d="M172.855,158.813l3.395,3.753c15.621-14.031,46.403-49.425,44.681-47.313
										c0,0-10.251-4.601-21.585-3.038c-11.334,1.563-32.895,6.527-32.989,19.833
										C166.264,145.354,172.855,158.813,172.855,158.813z"/>
								</g>
							</g>
						</g>
					</g>
				</g>
			</g>
			<g>
				<path style="fill:#FF725E;" d="M238.878,126.713c-1.172-2.555,0.111-5.646,2.292-7.53c2.181-1.884,5.076-2.82,7.896-3.656
					c2.821-0.836,5.732-1.658,8.057-3.382c4.612-3.419,5.834-9.608,5.192-15.099c-1.227-10.494-8.082-19.974-17.18-26.118
					c-9.098-6.144-20.25-9.185-31.407-10.11c-23.205-1.925-44.109,6.102-61.893,20.322c-2.919,2.334-4.755,5.921-4.916,9.522
					c-0.128,2.857,1.551,5.481,3.289,7.821c5.352,7.207,11.626,12.194,18.995,17.591l-2.067,11.783L238.878,126.713z"/>
				<g>
					<path style="fill:#263238;" d="M255.745,91.964c0.022,0.021-0.219,0.348-0.728,0.875c-0.508,0.528-1.296,1.242-2.341,2.032
						c-1.045,0.789-2.351,1.643-3.824,2.537c-1.47,0.898-3.105,1.847-4.734,2.958c-1.626,1.113-3.082,2.31-4.205,3.581
						c-1.128,1.267-1.928,2.588-2.431,3.765c-1.012,2.381-0.818,4.057-0.931,4.043c-0.024,0.002-0.102-0.401-0.074-1.138
						c0.026-0.735,0.192-1.805,0.663-3.043c0.475-1.234,1.269-2.619,2.411-3.943c1.139-1.329,2.622-2.565,4.272-3.694
						c1.653-1.127,3.303-2.067,4.782-2.94c1.482-0.87,2.794-1.682,3.854-2.424C254.588,93.095,255.682,91.902,255.745,91.964z"/>
				</g>
				<g>
					<path style="fill:#263238;" d="M244.455,80.195c0.06,0.093-1.635,1.079-4.001,3.137c-0.588,0.518-1.228,1.089-1.859,1.76
						c-0.666,0.637-1.294,1.395-1.975,2.173c-1.305,1.604-2.62,3.466-3.781,5.553c-1.137,2.101-2.002,4.21-2.654,6.173
						c-0.29,0.993-0.592,1.93-0.772,2.833c-0.228,0.893-0.365,1.74-0.486,2.514c-0.465,3.101-0.386,5.06-0.497,5.059
						c-0.036,0.001-0.064-0.486-0.085-1.37c-0.017-0.443-0.021-0.984,0.031-1.611c0.044-0.627,0.058-1.346,0.186-2.128
						c0.099-0.787,0.217-1.647,0.429-2.556c0.164-0.92,0.454-1.874,0.736-2.885c0.635-1.999,1.501-4.147,2.655-6.28
						c1.178-2.118,2.526-4.002,3.87-5.611c0.701-0.781,1.35-1.538,2.038-2.17c0.653-0.667,1.315-1.229,1.925-1.735
						c0.591-0.528,1.19-0.926,1.695-1.3c0.501-0.38,0.96-0.668,1.343-0.891C244.01,80.402,244.436,80.164,244.455,80.195z"/>
				</g>
				<g>
					<path style="fill:#263238;" d="M218.435,74.835c0.036,0.005,0.011,0.46-0.065,1.276c-0.08,0.816-0.184,1.997-0.294,3.456
						c-0.222,2.918-0.393,6.961-0.242,11.422c0.158,4.462,0.609,8.484,1.032,11.38c0.21,1.448,0.396,2.619,0.532,3.427
						c0.132,0.809,0.188,1.26,0.153,1.268c-0.035,0.007-0.159-0.43-0.352-1.228c-0.198-0.798-0.439-1.962-0.697-3.409
						c-0.518-2.892-1.03-6.932-1.189-11.42c-0.152-4.487,0.079-8.552,0.396-11.473c0.157-1.461,0.317-2.64,0.459-3.449
						C218.307,75.275,218.4,74.83,218.435,74.835z"/>
				</g>
				<g>
					<path style="fill:#263238;" d="M201.459,69.699c0.036,0.002,0.047,0.574,0.037,1.605c-0.016,1.031-0.019,2.523,0.006,4.365
						c0.045,3.683,0.293,8.771,1.015,14.344c0.73,5.573,1.794,10.556,2.695,14.127c0.448,1.786,0.833,3.228,1.113,4.22
						c0.274,0.994,0.41,1.55,0.375,1.561c-0.034,0.011-0.235-0.524-0.569-1.502c-0.34-0.976-0.78-2.405-1.275-4.186
						c-0.994-3.559-2.121-8.554-2.855-14.154c-0.725-5.599-0.916-10.715-0.867-14.41c0.023-1.848,0.081-3.343,0.16-4.373
						C201.366,70.266,201.423,69.698,201.459,69.699z"/>
				</g>
				<g>
					<path style="fill:#263238;" d="M169.4,81.446c0.027-0.024,0.406,0.361,1.068,1.077c0.665,0.714,1.596,1.774,2.719,3.109
						c2.248,2.667,5.218,6.471,8.215,10.873c2.993,4.407,5.438,8.569,7.091,11.64c0.828,1.535,1.472,2.791,1.891,3.672
						c0.423,0.879,0.641,1.372,0.609,1.389c-0.032,0.016-0.311-0.446-0.788-1.295c-0.527-0.93-1.21-2.136-2.033-3.587
						c-1.732-3.018-4.217-7.135-7.2-11.527c-2.986-4.388-5.9-8.213-8.07-10.933c-1.047-1.298-1.917-2.378-2.588-3.21
						C169.7,81.9,169.373,81.47,169.4,81.446z"/>
				</g>
				<path style="fill:#FF725E;" d="M167.693,149.972c-3.814-13.042-1.81-22.116,0.693-31.421c0,0,30.869-18.42,56.312-12.599
					c0,0,15.892,3.192,17.941,11.437l0.447,28.086c0,0-1.734-11.114-24.874-11.994C195.072,132.601,167.693,149.972,167.693,149.972
					z"/>
			</g>
			<g>
				<path style="fill:#FF9A6C;" d="M202.694,179.149c0.189-0.919,0.764-1.703,1.462-2.219c1.397-1.033,3.33-1.004,4.669,0.069
					c1.34,1.073,2.005,3.124,1.607,4.957l0,0c-0.869,1.03-2.132,1.676-3.479,1.696c-0.21,0.003-0.419-0.004-0.629-0.025
					c-1.014-0.099-2.023-0.516-2.745-1.321C202.857,181.502,202.461,180.283,202.694,179.149z"/>
				<path style="fill:#263238;" d="M204.744,174.638c0.4,0.028,0.069,2.678,2.101,4.848c2.026,2.176,4.891,2.238,4.865,2.61
					c0.016,0.171-0.695,0.435-1.892,0.316c-1.176-0.109-2.838-0.702-4.08-2.029c-1.239-1.329-1.639-2.944-1.592-4.043
					C204.186,175.219,204.565,174.6,204.744,174.638z"/>
			</g>
			<g>
				<path style="fill:#263238;" d="M241.978,117.497c-0.016,0.007-0.158-0.237-0.412-0.706c-0.135-0.23-0.264-0.535-0.48-0.859
					c-0.22-0.33-0.467-0.703-0.743-1.117c-1.178-1.626-3.302-3.737-6.505-5.407c-3.18-1.701-7.357-2.961-12.09-3.6
					c-4.733-0.65-10.032-0.737-15.501,0.001c-2.736,0.357-5.378,0.911-7.897,1.564c-2.519,0.65-4.904,1.459-7.18,2.215
					c-4.545,1.53-8.581,3.073-11.945,4.43c-3.366,1.355-6.061,2.522-7.926,3.322c-0.898,0.384-1.614,0.691-2.149,0.92
					c-0.493,0.207-0.756,0.307-0.763,0.291c-0.007-0.016,0.24-0.149,0.72-0.386c0.526-0.251,1.228-0.588,2.11-1.009
					c1.841-0.858,4.516-2.077,7.87-3.478c3.352-1.403,7.383-2.985,11.93-4.544c2.275-0.769,4.665-1.591,7.204-2.254
					c2.536-0.664,5.199-1.227,7.958-1.587c5.516-0.745,10.866-0.642,15.637,0.04c4.773,0.671,8.991,1.982,12.198,3.75
					c3.23,1.738,5.355,3.931,6.496,5.614c0.264,0.429,0.501,0.814,0.711,1.156c0.203,0.336,0.32,0.651,0.44,0.89
					C241.885,117.232,241.994,117.49,241.978,117.497z"/>
			</g>
		</g>
	</g>
</g>
</svg>
